<?xml version="1.0" encoding="utf-8"?>
<!-- Generator: Adobe Illustrator 27.9.4, SVG Export Plug-In . SVG Version: 9.03 Build 54784)  -->
<svg version="1.1" id="Layer_1" xmlns="http://www.w3.org/2000/svg" xmlns:xlink="http://www.w3.org/1999/xlink" x="0px" y="0px"
	 viewBox="0 0 595.28 791.11" style="enable-background:new 0 0 595.28 791.11;" xml:space="preserve">
<style type="text/css">
	.st0{fill:none;stroke:#000000;stroke-width:0.75;stroke-miterlimit:10;}
	.st1{fill:#CDB35B;}
	.st2{fill:#C3944A;}
	.st3{fill:#C8A64F;}
	.st4{fill:#B38B49;}
	.st5{fill:#88482E;}
	.st6{fill:#9B5E37;}
	.st7{fill:#9A6E41;}
	.st8{fill:#DDC47B;}
	.st9{fill:#C69F4B;}
	.st10{fill:#C28D47;}
	.st11{fill:#AF8045;}
	.st12{fill:#A46C3A;}
	.st13{fill:#EFEAF2;}
	.st14{fill:#C49647;}
	.st15{fill:#C39446;}
	.st16{fill:#BC8C44;}
	.st17{fill:#82412C;}
	.st18{fill:#743228;}
	.st19{fill:#90502F;}
	.st20{fill:#6C2A23;}
	.st21{fill:#C49649;}
	.st22{fill:#B98143;}
	.st23{fill:#BA7E40;}
	.st24{fill:#AF723D;}
	.st25{fill:#9E6336;}
	.st26{fill:#995A33;}
	.st27{fill:#621922;}
	.st28{fill:#181410;}
	.st29{fill:#191410;}
	.st30{fill:#191511;}
	.st31{fill:#83583B;}
	.st32{fill:#2D2016;}
	.st33{fill:#373330;}
	.st34{fill:#533E2F;}
	.st35{fill:#38271A;}
	.st36{fill:#2B2724;}
	.st37{fill:#F1F1F0;}
	.st38{fill:#FCFCFB;}
	.st39{fill:#473020;}
	.st40{fill:#F9F9F8;}
	.st41{fill:#FAFAF8;}
	.st42{fill:#FBFBF9;}
	.st43{fill:#FEFEFD;}
	.st44{fill:#F5F5F4;}
	.st45{fill:#E8E7E6;}
	.st46{fill:#FDFDFC;}
	.st47{fill:none;stroke:#000000;stroke-miterlimit:10;}
</style>
<g id="Layer_2_00000108997925186066151330000000236982919241454215_">
	<line class="st0" x1="343.43" y1="171.39" x2="345.08" y2="166.33"/>
</g>
<g id="Layer_1_00000126297783420000660740000001792497892112126372_">
	<g>
		<g>
			<path class="st28" d="M206.6,608.65c0.45-0.23,1.14-0.35,1.31-0.71c0.9-1.92,1.7-3.88,2.45-5.86c0.19-0.51,0.19-1.18,0.06-1.72
				c-0.94-3.8-1.93-7.59-2.95-11.54c-2.87-0.32-5.71-0.77-8.55-0.91c-2.4-0.11-3.6-1.56-3.86-3.52c-0.2-1.49,0.28-3.18,0.89-4.6
				c0.22-0.5,1.7-0.61,2.62-0.62c1.67-0.03,3.35,0.2,5.02,0.18c0.39,0,0.77-0.55,1.16-0.85c0.22-0.22,0.44-0.44,0.65-0.65
				c0.3,2.5,2.13,1.63,3.89,1.81c-2.24-8.26-4.41-16.27-6.75-24.89c-1.08,1.24-1.79,2.06-2.5,2.88c-0.2,0.01-0.4,0.02-0.61,0.03
				c-0.15-0.48-0.29-0.95-0.44-1.43c0.14-0.2,0.29-0.39,0.43-0.59c1.51-1.19,2.8-2.22,2.12-4.68c-4.81-17.45-9.48-34.94-14.13-52.43
				c-0.5-1.9-1.18-3.11-3.39-2.32c-0.3-0.15-0.59-0.3-0.89-0.45c-1.9-2.92-3.97-5.76-5.61-8.82c-0.71-1.32-0.51-3.12-0.73-4.8
				c-7.36-1.14-15.13-2.35-22.9-3.56c-0.05-0.27-0.09-0.55-0.14-0.82c0.75-0.26,1.5-0.74,2.24-0.74c7.26-0.03,14.52,0.01,21.78,0.04
				c0.31-0.15,0.62-0.31,0.93-0.46c0.95,0.05,1.89,0.1,2.84,0.15c0.17-0.21,0.33-0.41,0.5-0.62c0.28,0.3,0.56,0.86,0.83,0.86
				c7.51-0.02,15.02,0,22.52-0.18c6.38-0.15,12.75-0.64,19.12-0.79c5.81-0.14,11.63-0.03,17.54-0.03c0.49-3.27,0.92-6.07,1.33-8.83
				c-2.45-1.18-4.76-2.23-7.02-3.4c-2.82-1.47-5.75-2.18-8.97-2.06c-4.69,0.17-9.4,0.32-14.08,0.06
				c-7.47-0.41-15.09-0.29-22.19-3.03c-4.62-1.78-9.27-2.78-14.19-2.71c-0.4,0-0.79-0.01-1.19-0.01c-0.72,0.01-1.44,0.01-2.16,0.02
				c-0.4-0.01-0.8-0.01-1.2-0.02c-1.82-0.2-3.68-0.24-5.45-0.65c-1.72-0.4-3.3-1.13-3.48-3.38c-0.09-1.1-0.79-1.88-2.18-2
				c-3.81-0.31-7.62-0.77-11.42-1.22c-2.98-0.36-5.94-0.81-8.99-1.23c-0.34-1.64,0.81-1.74,1.98-1.74c4.24-0.01,8.48,0.07,12.72,0
				c4.78-0.07,9.55-0.36,14.33-0.35c2.86,0.01,5.73,0.55,8.59,0.61c8.32,0.16,16.63,0.24,24.95,0.26
				c14.23,0.04,28.46,0.01,43.04,0.01c0.42-2.7,0.91-5.79,1.44-9.2c-4.23,0.46-8.2,0.75-12.12,1.35
				c-11.24,1.7-22.52,2.56-33.88,2.16c-2.37-0.08-4.71-0.77-7.09-0.99c-3.79-0.36-7.59-0.56-11.38-0.85
				c-1.07-0.08-2.14-0.22-4.08-0.43c3.48-5.09,6.58-9.63,9.71-14.22c-3.84-6.74-2.9-13.71-0.16-20.55
				c-5.81-1.1-11.51-2.18-17.22-3.25c-0.03-0.26-0.07-0.52-0.1-0.78c0.94-0.21,1.87-0.61,2.81-0.61c9.92-0.02,19.84,0.12,29.76-0.01
				c2.87-0.04,5.74-0.77,8.6-1.19c0.11-0.27,0.22-0.54,0.33-0.81c-3.25-3.13-6.52-6.23-9.73-9.39c-4.33-4.26-8.61-8.57-12.93-12.85
				c-2.12-2.1-3.99-4.44-7.33-4.9c-1.74-0.24-2.73-1.51-0.94-3.13c-1.03-1.89-2.57-2.21-4.54-2.46c-4.29-0.55-8.5-1.62-12.75-2.49
				c-0.67-0.14-1.34-0.32-2-0.74c5.53,0,11.08-0.28,16.59,0.06c9.46,0.58,18.55-0.96,27.54-3.72c3.89-1.2,7.96-1.84,11.81-3.13
				c3.65-1.22,7.48-1.55,11.14-2.75c3.78-1.24,7.73-1.97,11.59-2.98c0.53-0.14,0.96-0.62,1.44-0.94c1.15-0.11,2.32-0.09,3.43-0.35
				c4.04-0.95,8.05-2.02,12.08-2.99c3.98-0.96,3.99-0.94,3.99-4.62c-9.25-7.14-19.94-5.79-30.01-5.99c0.17,0.66,0.4,1.53,0.64,2.4
				c-2.57-4.24-7.14-4.03-11.13-4.65c-5.37-0.83-10.84-1.04-16.26-1.53c-1.32-0.12-2.64-0.28-3.96-0.42c-0.16,0-0.32,0-0.49,0
				c-1.77-0.5-3.52-1.17-5.33-1.45c-2.26-0.35-4.59-0.3-6.87-0.58c-0.78-0.1-1.5-0.67-2.25-1.02c0.72-0.28,1.44-0.81,2.16-0.82
				c8.38-0.05,16.76,0.1,25.14-0.07c2.63-0.05,5.24-0.89,7.85-1.41c0.19-0.04,0.31-0.43,0.47-0.66c1.08-0.07,2.19,0.01,3.24-0.23
				c8.41-1.91,16.81-3.86,25.2-5.85c3.2-0.76,6.38-1.65,9.69-2.52c-3.39-7.45-6.59-14.54-9.9-21.58c-0.29-0.62-1.39-1.24-2.09-1.22
				c-6.12,0.21-12.24,0.66-18.36,0.85c-8.79,0.27-17.39-0.78-25.73-3.77c-3.69-1.32-7.54-2.23-11.33-3.26
				c-0.27-0.07-0.69,0.38-1.03,0.59c-0.98-0.82-1.93-1.66-2.93-2.45c-0.55-0.43-1.13-1.06-1.75-1.12c-2.69-0.28-5.4-0.33-8.09-0.59
				c-0.95-0.09-1.86-0.55-2.78-0.84c0.06-0.29,0.11-0.58,0.17-0.87c0.73-0.07,1.47-0.2,2.2-0.2c8.21,0,16.44,0.35,24.63-0.09
				c4.47-0.24,8.89-1.67,13.29-2.75c7.75-1.9,15.47-3.93,23.2-5.92c0.14-0.03,0.24-0.21,0.54-0.49c-2.3-5.02-4.63-10.12-6.96-15.22
				c-1.79-3.92-3.7-7.8-5.35-11.78c-0.72-1.74-1.39-3.17-3.55-3.23c-0.31-0.01-0.61-0.43-1.31-0.97c1.34-0.91,2.44-1.66,3.55-2.41
				c-5.66-0.51-11.34-1.01-17.02-1.52c0-0.28,0-0.56,0-0.85c0.71-0.11,1.42-0.3,2.13-0.3c3.84-0.03,7.67-0.09,11.51,0
				c7.88,0.19,14.95-2.98,22.25-5.21c0.14-0.14,0.28-0.29,0.42-0.43c1.93-0.36,3.89-0.61,5.78-1.1c3.9-1.01,7.77-2.16,11.74-3.27
				c-3.79-11.24-7.45-22.18-11.21-33.08c-0.22-0.65-1.19-1.3-1.93-1.48c-3.98-0.94-7.98-1.92-12.02-2.52
				c-3.06-0.45-6.23-0.14-9.31-0.55c-1.93-0.25-4.08-0.79-5.57-1.93c-1.6-1.23-2.64-1.93-4.36-1.02c0.39,0.85,0.79,1.69,1.18,2.54
				c-0.13,0.17-0.26,0.33-0.38,0.5c-1.34-3.64-4.17-4.75-7.79-4.85c-1.87-0.05-3.73-0.62-5.6-0.95c0-0.2-0.01-0.4-0.01-0.6
				c6.83-0.4,13.79-0.13,20.46-1.4c6.51-1.23,12.72-4.04,19.14-6.18c-0.45-1.41-0.79-2.49-1.1-3.48c-2.54-0.26-5.04-0.3-7.42-0.84
				c-1.3-0.29-3.67-0.71-1.65-3.09c-4.43-0.54-8.64-1.05-12.85-1.56c-0.02-0.28-0.04-0.57-0.06-0.85c1.23-0.18,2.46-0.52,3.69-0.51
				c3.58,0.03,7.17,0.06,10.73,0.34c4.52,0.36,8.7-0.59,12.87-2.28c3.6-1.46,7.37-2.49,11.16-3.74
				c-4.77-11.49-9.45-22.78-14.13-34.07c-0.15-0.36-0.21-0.76-0.32-1.14c0.18,0,0.36-0.01,0.54-0.01
				c4.89,11.61,9.78,23.23,14.66,34.84c3.88-1.22,7.8-2.45,11.71-3.68c0.17,0.14,0.35,0.29,0.52,0.43
				c-3.96,1.37-7.92,2.75-11.94,4.15c0.56,1.32,1.27,2.57,1.63,3.92c0.45,1.69,1.36,2.17,3.05,2.08c6.06-0.31,12.13-0.5,18.19-0.69
				c3-0.09,3.16-0.28,3.43-3.22c0.26-2.82,0.78-5.61,1.04-8.43c0.09-0.94-0.3-1.93-0.48-2.9c-0.01-0.19-0.02-0.38-0.02-0.58
				c0.34-0.75,0.87-1.48,0.97-2.26c0.51-3.88,0.91-7.77,1.33-11.66c0.54-4.98,1.01-9.98,1.6-14.96c0.34-2.88,0.83-5.75,1.23-8.48
				c-1.85-0.18-3.68-0.68-5.42-0.46c-4.6,0.57-9.15,1.61-13.76,2.17c-4.49,0.55-9.04,1.14-13.53,0.98
				c-6.17-0.22-12.32-1.12-18.48-1.73c-0.32-0.18-0.65-0.36-0.97-0.55c-3.94-1.02-7.8-2.56-12.01-1.99
				c-0.15-0.91-0.3-1.82-0.45-2.73c1.48-1.12,2.96-2.25,4.48-3.4c-3.74-0.71-7.53-1.43-11.33-2.14c0-0.22,0-0.44,0-0.66
				c4.04,0,8.08,0,12.12,0c6.66-0.01,13.33,0.09,19.99-0.07c8.33-0.2,16.65-0.75,24.98-0.86c4.37-0.06,8.76,0.47,13.14,0.76
				c1.48,0.1,2.21-0.18,2.43-1.98c1.1-8.9,2.5-17.76,3.62-26.66c0.69-5.52,1.03-11.09,1.61-16.62c0.33-3.16,0.71-6.31,1.29-9.43
				c0.13-0.7,1.22-1.21,1.87-1.81c0.38,0.74,1.08,1.47,1.1,2.22c0.14,6.8-0.07,13.62,0.28,20.41c0.33,6.26,1.18,12.5,1.87,18.74
				c0.52,4.66,1.25,9.3,1.69,13.97c0.16,1.65,0.74,2.2,2.32,2.23c8.46,0.12,16.92,0.37,25.38,0.45c8.73,0.08,17.48-0.26,26.2,0.07
				c7.49,0.28,14.96,1.26,22.45,2.17c-4.73,0.54-9.48,0.99-14.19,1.66c-1.31,0.19-2.56,0.96-3.74,1.63
				c-0.21,0.12-0.11,1.18,0.15,1.64c0.37,0.68,1.04,1.19,1.53,1.81c0.32,0.4,0.55,0.86,0.83,1.3c-0.51,0.28-1.01,0.77-1.53,0.8
				c-3.42,0.2-6.86,0.21-10.28,0.48c-0.8,0.06-1.93,0.73-2.25,1.43c-6.64,14.4-13.19,28.84-19.75,43.28
				c-0.19,0.42-0.26,0.89-0.41,1.42c5.47,2.04,10.8,4.05,16.16,5.99c0.64,0.23,1.42,0.12,2.14,0.12c5.74,0.01,11.47,0,17.3,0.53
				c-3.41,0.59-6.82,1.17-9.91,1.7c-0.22,1.12-0.17,2.04-0.57,2.65c-0.95,1.44-6.28,2.5-7.89,1.79c-1.49-0.65-3.02-1.19-4.54-1.79
				c-0.16,0.13-0.31,0.27-0.47,0.4c-3.37-1.48-6.39,0-9.57,1.36c1.03,0.34,2.05,0.72,3.1,1.02c1.06,0.31,2.13,0.53,3.2,0.8
				c6.82,1.71,13.69,3.27,20.46,5.18c7.5,2.12,15.01,3.62,22.88,3.22c4.25-0.21,8.53,0.27,12.79,0.44c0.02,0.34,0.03,0.67,0.05,1.01
				c-3.08,0.29-6.15,0.62-9.23,0.87c-3.16,0.26-6.33,0.45-9.6,0.68c1.27,1.48,0.47,2.3-1.07,2.53c-1.79,0.27-2.56,1.45-3.39,2.86
				c-7.78,13.31-15.62,26.58-23.44,39.86c-0.44,0.75-0.85,1.51-1.6,2.86c3.77,0.72,7.3,1.76,10.87,1.98
				c5.42,0.33,10.87,0.08,16.31,0.1c0.82,0,1.64,0.11,2.47,0.17c0.03,0.3,0.05,0.6,0.08,0.9c-3.39,0.59-6.79,1.18-9.74,1.69
				c-0.07,1.38,0.1,2.63-0.29,3.67c-0.19,0.5-1.48,0.91-2.21,0.82c-1.62-0.19-2.64-0.14-3.48,1.69c-3.85,8.32-7.93,16.54-12.07,25.1
				c3.42,0.82,6.66,1.64,9.92,2.39c13.52,3.11,27.04,6.2,40.57,9.28c0.76,0.17,1.55,0.32,2.33,0.33c4.95,0.08,9.91,0.1,14.87,0.17
				c0.83,0.01,1.66,0.16,2.49,0.24c0,0.21,0.01,0.43,0.01,0.64c-2.48,0.28-4.96,0.6-7.45,0.81c-1.54,0.13-2.52,0.46-1.68,2.31
				c0.21,0.46,0.28,1.23,0.03,1.63c-1.87,2.99-3.83,5.93-5.76,8.89c-1.56-0.7-2.7-1.21-3.6-1.61c-1.08,0.52-1.97,0.96-2.86,1.39
				c0.43-0.56,0.85-1.11,1.41-1.84c-1.44-0.56-2.63-1.32-3.9-1.46c-4.11-0.48-8.24-0.72-12.36-1.09c-1.22-0.11-2.61-0.8-3.61-0.41
				c-3.95,1.54-8.03,1.77-12.17,1.83c-3.44,0.06-6.9-0.23-10.3,0.11c-6.33,0.64-12.62,1.41-18.8-1.15
				c-2.18,4.51-4.27,8.79-6.32,13.1c-0.23,0.48-0.4,1.08-0.33,1.59c0.38,2.48,0.74,4.98,1.36,7.41c0.19,0.75,1.07,1.73,1.8,1.89
				c10.92,2.5,21.9,4.74,32.79,7.39c3.23,0.79,5.97,1.3,8.33-1.54c-0.47,0.93-0.94,1.86-1.5,2.97c10.07,3.18,20.53,1.03,30.7,2.67
				c-4.96,0.87-9.92,1.74-15.05,2.63c0.9,1.75-0.14,2.26-1.64,2.67c-2.16,0.58-4.28,1.34-6.41,2.03c-0.35-0.31-0.67-0.83-1.07-0.9
				c-2.31-0.4-4.63-0.92-6.95-0.95c-2.68-0.03-5.51-1.07-8.02,0.77c-0.11-0.14-0.23-0.29-0.34-0.43c-2.25,0.08-4.79-0.5-6.69,0.36
				c-5.76,2.6-11.79,2.29-17.8,2.47c-1.53,0.05-3.07-0.33-4.9-0.54c0.42,2.48,1.01,4.55,1.05,6.64c0.03,1.66,0.79,2.26,2.11,2.58
				c3.5,0.84,7.06,1.49,10.51,2.5c2.05,0.6,3.47,0.4,4.57-1.5c0.25-0.43,0.81-0.68,1.22-1.01c0.11,0.12,0.22,0.24,0.33,0.37
				c-0.74,0.98-1.47,1.95-2.19,2.9c2.64,0.68,5.19,1.47,7.8,1.97c2.61,0.5,5.29,0.72,7.93,1.06c0.39,0.32,0.73,0.84,1.17,0.95
				c14.53,3.52,29.04,7.18,43.64,10.35c3.89,0.85,8.12,0.19,12.19,0.21c2.91,0.01,5.82,0,8.75,0.25c-3.37,2.85-7.26,4.06-11.49,4.06
				c-3.26,0-5.94,0.77-8.14,3.46c-1.81,2.2-4.12,4-6.25,5.92c-0.31,0.27-0.89,0.24-1.34,0.35c2.84-2.9,5.68-5.8,8.51-8.7
				c-2.02,0.57-4.09,1.85-5.88,1.54c-7.5-1.3-14.87,0.03-21.98,1.59c-9.38,2.06-18.69,1.48-28.07,1.58
				c-1.54,0.02-3.09,0.17-4.62,0.39c-3.2,0.45-5.23,2.65-7.17,4.96c0.16-0.64,0.33-1.28,0.49-1.92c0.11-0.13,0.22-0.25,0.33-0.38
				c-0.2,0.03-0.39,0.06-0.59,0.08c-1.64,0.74-3.32,1.42-4.91,2.27c-0.49,0.27-1.05,1.02-1.03,1.52c0.05,1.17,0.43,2.33,0.62,3.24
				c0.77-0.24,1.48-0.46,2.18-0.68c-2.09,1.7-1.97,3.95-1.36,6.19c0.18,0.65,0.98,1.43,1.63,1.59c10.48,2.63,21.06,4.86,31.43,7.85
				c5.03,1.45,8.71,0.94,11.75-3.36c0.58-0.83,1.45-1.49,2.29-2.09c0.61-0.43,1.38-0.63,2.08-0.93c-2.56,2.7-5.12,5.4-7.98,8.42
				c10.36,0,20.62,0,30.88,0.02c0.2,0,0.39,0.25,0.55,0.99c-6.59,1.1-13.18,2.2-19.49,3.26c1.4,2.62,2.9,5.36,4.32,8.15
				c0.35,0.69,0.57,1.51,0.62,2.29c0.28,3.94,0.14,4.12-3.94,5.96c4.25,4.38,8.09,9,10.23,14.81c0.62,1.68,0.91,3.13-1.53,3.7
				c1.48,3.02,2.82,6.01,4.43,8.84c0.36,0.64,1.66,1.04,2.54,1.05c13.11,0.13,26.23,0.16,39.34,0.26c1.17,0.01,2.33,0.36,3.49,0.56
				c-0.01,0.33-0.01,0.66-0.02,0.98c-5.35,0.79-10.7,1.58-16.05,2.37c-0.01,0.14-0.08,0.33-0.02,0.44c2.17,3.85,1.9,4.34-2.36,5.81
				c-1.88,0.65-3.59,1.78-5.38,2.69c-0.18-0.01-0.36-0.02-0.54-0.03c-0.18,0-0.36-0.01-0.54-0.01l0.05-0.03
				c-0.74,0.27-1.52,0.48-2.22,0.83c-3.29,1.63-6.48,2.14-9.55-0.51c-0.4-0.35-1.03-0.44-1.99-0.82c2.75,5.49,5.24,10.55,7.84,15.55
				c0.18,0.34,1.11,0.29,1.68,0.43l0.01-0.03c0.29,0.14,0.57,0.27,0.86,0.41c1.92,0.01,3.83-0.05,5.74,0.05
				c0.91,0.05,1.81,0.41,2.71,0.63c0,0.33,0.01,0.66,0.01,0.99c-2.47,0.57-4.91,1.27-7.41,1.65c-1.68,0.25-2.53,1.04-2.98,2.58
				c-9.39,31.63-18.79,63.25-28.18,94.88c-0.18,0.6-0.24,1.24-0.39,2.04c3.12-0.15,6.17-0.29,9.83-0.46c0,1.56,0.14,3.26-0.08,4.92
				c-0.06,0.48-1.11,1.12-1.76,1.19c-2.53,0.29-5.08,0.43-7.63,0.52c-1.67,0.06-2.58,0.5-3.09,2.41
				c-1.67,6.26-3.68,12.43-5.57,18.65c0.56,0.41,1.11,0.65,1.41,1.07c0.29,0.4,0.54,1.09,0.38,1.48c-0.16,0.39-0.83,0.75-1.3,0.79
				c-1.24,0.11-2.51,0.04-4.26,0.04c0.51,4.59,0.96,8.91,1.5,13.22c0.41,3.31,1.07,6.6,1.36,9.92c0.12,1.36-0.46,2.77-0.72,4.16
				c-0.47,0.31-1.12,0.52-1.37,0.96c-1.52,2.61-3.08,5.2-4.33,7.94c-0.48,1.05-0.15,2.46-0.19,3.71c-0.01,0.46-0.03,0.92-0.03,1.38
				c-0.04,3.35-0.14,6.71-0.11,10.06c0.02,2.86,0.16,5.71,0.31,8.57c0.05,0.97,0.32,1.92,0.48,2.88c-0.17,0.64-0.33,1.28-0.5,1.92
				c-0.14,0.48-0.28,0.96-0.42,1.44c-2.5,9.08-5.52,17.94-11.09,25.7c-0.18,0.26-0.38,0.52-0.49,0.81c-2,5.11-6.27,6.63-11.21,7.11
				c-1.19,0.12-2.41,0.19-3.55,0.51c-5.72,1.6-11.52,1.72-17.35,0.94c-12.72-1.7-25.5-1.69-38.28-1.2
				c-14.05,0.54-28.08,1.38-42.13,1.86c-10.38,0.35-20.59-1.03-30.34-4.73c-6.3-2.39-10.84-6.87-13.6-13.07
				c-1.1-2.46-2.25-4.9-3.38-7.35c1.25-0.01,2.7-0.28,2.37,2.12c1.09-0.34,1.98-0.63,3.13-0.99c-1.15-1.86-2.2-3.32-2.99-4.91
				c-0.54-1.09-0.72-2.36-1.05-3.55c-0.42-1.53-0.96-2.96-2.74-3.39c0.47-4.09-1.48-0.96-2.43-0.81c-0.52-0.56-1.01-1.14-1.56-1.67
				c-1.24-1.2-2.59-2.3-3.75-3.57c-1.46-1.6-1.34-3.29,0.14-4.87c0.14-0.18,0.28-0.37,0.42-0.55c0.11-0.13,0.22-0.25,0.33-0.38
				h-0.01c0.14-0.12,0.29-0.24,0.43-0.36c0.18-0.01,0.35-0.02,0.53-0.02c1.48,1.29,2.47,3.97,5.18,1.73
				c0.3-0.25,1.04,0.09,1.55,0.01c1.62-0.25,3.22-0.57,4.72-0.85c0.61-0.03,1.1-0.07,1.6-0.11c-0.33-0.43-0.72-0.6-1.13-0.68
				c-0.09-0.02-0.24,0.33-0.47,0.78c-0.42-0.65-1-1.84-1.48-1.8c-2.26,0.17-4.17-0.68-6.11-1.57c-0.16-0.92-0.43-1.83-0.44-2.75
				c-0.06-3.99-0.15-7.97-1.53-11.78c-0.35-0.96-0.93-1.83-1.4-2.75c-0.75-1.56-1.66-3.07-2.19-4.7c-0.34-1.06-0.12-2.29-0.16-3.45
				c0.77-0.11,1.59-0.46,2.3-0.3c1.87,0.43,1.95-1.37,2.8-2.14c0.2-0.19-0.14-1.53-0.43-1.6c-1.03-0.27-2.14-0.22-3.22-0.29
				c-0.11-1.75-0.22-3.49-0.33-5.24c1.81-0.96,1.74-4.05-0.13-5.32c0.07-2.12-0.47-3.6-2.81-4.48c-2.49-0.94-4.4-2.95-4.98-5.69
				c-0.17-0.78,0.6-1.76,0.94-2.66c1.8,0.61,3.65,1.79,5.4,1.67c1.81-0.13,2.95-0.36,3.02,1.54c2.73-1.04,5.34-2.04,8.55-3.26
				c-1.62,0-2.76,0.04-3.9-0.01C212.05,608.96,209.32,608.79,206.6,608.65z M220.98,411.83l-0.11-0.2l-0.09,0.09
				c0,0,0.2,0.11,0.64,0.29C221.27,411.95,221.12,411.89,220.98,411.83c-0.12,0.66-0.24,1.33-0.37,1.99c0.2,0.02,0.4,0.04,0.6,0.06
				C221.28,413.25,221.35,412.63,220.98,411.83z M279.09,469.42c-0.8,0.45-2.29,0.94-2.27,1.36c0.06,1.46-1.08,3.26,0.82,4.38
				c2.97,0.2,3.81-1.49,3-6.14C280.12,469.15,279.6,469.28,279.09,469.42z M282.41,292.8c-0.33-0.14-0.66-0.28-0.99-0.43
				c-2.74-1.03-5.49-2.06-8.4-3.15c-1.21,8.01-2.35,15.54-3.55,23.51c5.47-1.3,10.66-2.53,15.88-3.77c0.15-2.92,0.29-5.67,0.43-8.43
				c0.01-0.35,0.02-0.69,0.03-1.04c0.43-2.13,0.87-4.26,1.36-6.68C285.24,292.8,283.82,292.8,282.41,292.8z M405.31,424.78
				L405.31,424.78c-1.19-2.79-3.81-3.45-5.76-1.45c-0.8,0.16-1.6,0.32-2.41,0.48c-1.47,0.26-2.94,0.69-4.42,0.73
				c-1.6,0.04-2.35,0.59-2.29,2.21c0.07,1.88,1.43,1.79,2.71,1.86c1.27,0.07,2.54,0.14,4.01,0.23c-1,2.08-0.35,3.74,0.97,3.89
				c1.11,0.12,2.18,0.53,3.27,0.81c0.04,0.24,0.08,0.48,0.13,0.73c0.63-0.74,1.26-1.48,1.88-2.21c0.32-0.02,0.63-0.04,0.95-0.06
				c0.3,0.62,0.59,1.25,0.91,1.9c1.87-0.05,2.81-3.49,5.26-0.72c0-1.06,0.21-1.73-0.04-2.11c-0.94-1.48-2.01-2.88-3.04-4.3
				c-0.03-0.04-0.15-0.02-0.23-0.03c-0.32-0.17-0.63-0.33-0.95-0.5C405.94,425.75,405.63,425.26,405.31,424.78z M345.64,502.22
				c0.14,0.03,0.28,0.07,0.43,0.09c0.01,0,0.03-0.09,0.05-0.14c-0.17,0.03-0.34,0.06-0.5,0.09c-0.35-3.59-0.71-7.18-1.1-11.09
				c-1.9,0.72-3.19,1.21-4.31,1.64c0.29,1.13,0.53,2.06,0.77,2.98c-1.32-0.46-1.03-3.15-3.25-2.34c-3.61,1.32-7.21,2.66-10.92,4.03
				c2.22,4.15,4.35,8.15,6.51,12.14c0.21,0.39,0.58,0.92,0.92,0.96c4.43,0.49,8.86,0.9,13.33,1.33c-0.34-2.54-0.3-4.68-0.97-6.57
				c-0.67-1.89-2.08-3.51-3.13-5.27c-0.55-0.93-1.03-1.91-1.54-2.86C343.16,498.9,344.39,500.57,345.64,502.22z M294.03,133.07
				c-0.42,3.89-0.64,7.83-1.35,11.67c-0.35,1.91,0.47,1.79,1.67,1.77c-0.56,0.42-1.12,0.85-1.67,1.26
				c-0.5,4.92-1.01,9.92-1.53,14.96c1.72,0.09,3.36,0.17,5.02,0.25c0-5.38,0-10.85,0-16.32c-0.75-0.04-1.32-0.06-1.88-0.09
				c2.31-0.77,2.32-2.63,1.98-4.5c-0.55-3.02-1.27-6-1.92-9c-0.03-0.13-0.06-0.25-0.08-0.38
				C294.18,132.82,294.11,132.95,294.03,133.07z M299.88,257.83c-0.26,4.73-0.53,9.47-0.81,14.51c1.46-0.69,2.52-1.19,3.84-1.81
				c-0.67-4.26-1.34-8.48-2.01-12.7c-0.13-2.36-0.27-4.73-0.4-7.09c-0.21,0.01-0.42,0.02-0.63,0.03
				C299.88,253.12,299.88,255.47,299.88,257.83z M305.54,218c0,1.63,0,3.26,0,5.58c0.95-2.11,1.59-3.51,2.32-5.13
				c-0.51-0.15-0.98-0.3-1.46-0.45c-0.08-0.08-0.15-0.17-0.21-0.27c0.15-0.16,0.31-0.33,0.46-0.49c0.48,0.08,0.96,0.16,1.57,0.25
				c-0.82-7.83-1.61-15.4-2.4-22.97c-0.1,0.01-0.19,0.02-0.29,0.03C305.54,202.37,305.54,210.19,305.54,218z M341.82,477.5
				c0.34-0.13,0.68-0.27,1.02-0.4c2.81,0.2,5.61,0.4,8.62,0.61c-0.82-3.55-1.52-6.81-2.4-10.02c-0.13-0.49-1.11-1.03-1.73-1.07
				c-2.07-0.13-4.15-0.04-6.22-0.03c-0.22-0.01-0.45-0.03-0.67-0.04c-0.75-0.12-1.51-0.24-2.18-0.35c-0.25,1.67-0.22,3.24-0.74,4.59
				C336.01,474.69,337.71,477.46,341.82,477.5z M287.08,310.09c-0.75,0.01-1.51,0.01-2.26,0.02c-5.12,1.16-10.25,2.31-15.48,3.49
				c-0.6,3.97-1.18,7.86-1.83,12.19c4.43-0.55,8.51-1.17,12.62-1.53c2.17-0.19,3.44-1.19,4.14-3.14c0.34-0.5,0.69-0.99,1.03-1.49
				c0.3-0.44,0.6-0.89,0.9-1.34c0.06,0.58,0.12,1.17,0.18,1.77c2.11-1.11,4.14-2.06,6-3.26c0.52-0.33,0.95-1.62,0.71-2.16
				c-0.89-2.08-2.07-4.03-3.25-6.23C288.81,309.03,287.95,309.56,287.08,310.09z M364.04,530.33c0.09,0.19,0.18,0.38,0.26,0.57
				c0.05-0.12,0.1-0.24,0.15-0.36c-0.15-0.05-0.31-0.1-0.46-0.16c-1.09-5.13-2.17-10.27-3.32-15.69c-2.45,0.29-4.57,0.54-6.69,0.8
				c-1.53-0.32-3.05-0.64-4.87-1.02c0.08,1.12,0.07,2.06,0.22,2.97c1.2,7.46,2.39,14.92,3.66,22.37c0.87,5.09,1.28,10.23,3.99,14.95
				c4.25,7.38,8.19,14.96,11.89,22.63c1.5,3.11,3.29,4.57,6.67,3.93c0.3-0.06,0.59-0.1,0.99-0.16c-0.07-0.64-0.08-1.19-0.21-1.72
				c-2.82-11.62-5.61-23.25-8.48-34.86c-1.38-5.59-2.2-11.43-6.2-16.03c-0.2-0.23-0.04-0.76-0.04-1.15
				C362.42,528.37,363.23,529.35,364.04,530.33z M193.63,417.6L193.63,417.6c0.32,0.63,0.64,1.27,0.96,1.9
				c-1.14,1.87,0.41,2.15,1.98,3.07c-0.26-1.02-0.4-1.56-0.54-2.1c0.16-0.32,0.32-0.63,0.49-0.95c0.55-0.23,1.51-0.75,1.6-0.64
				c1.79,2.47,1.91,0.48,2.38-0.81c0.11-0.31,0.54-0.59,0.88-0.73c2.25-0.92,4.51-1.79,6.69-2.65c0.66,0.96,1.11,1.62,1.56,2.28
				c0.25-0.1,0.51-0.2,0.76-0.3c-0.15-0.81-0.3-1.63-0.44-2.44c0-0.32,0-0.63,0.01-0.95c0.43-0.15,0.93-0.2,1.27-0.46
				c1.49-1.11,2.94-2.28,4.46-3.47c0.74,1.45,1.23,2.39,2,3.88c0.13-1.84,0.22-3.01,0.3-4.18c0.2-0.13,0.39-0.26,0.59-0.38
				c0.56,0.59,1.11,1.18,1.38,1.45c0.8,0,1.72-0.27,2.11,0.06c0.61,0.52,0.85,1.47,1.42,2.55c0.36-0.99,0.51-1.77,0.91-2.42
				c0.48-0.78,1.05-1.86,1.78-2.06c1.4-0.37,2.95-0.34,4.41-0.21c4.09,0.37,8.17,0.87,12.26,1.31c0.23,0.02,0.61,0.04,0.68-0.08
				c1.3-2.18,3.43-0.94,5.16-1.3c0.8-0.17,1.58-0.46,2.37-0.7c-0.06-0.24-0.11-0.48-0.17-0.72c-0.85,0-1.7,0.03-2.55,0
				c-4.01-0.16-8.02-0.27-12.03-0.52c-3.4-0.22-6.78-0.64-10.18-0.88c-0.74-0.05-1.5,0.27-2.25,0.43c-0.32,0-0.63,0-0.95,0
				c-0.49-0.14-0.97-0.28-1.46-0.42c-4.17-0.17-8.34-0.33-12.51-0.52c-3.16-0.14-6.33-0.14-9.46-0.52
				c-2.68-0.33-5.14-0.33-7.31,1.49l0.01-0.01c-0.55,0.98-1.22,1.91-1.62,2.95c-0.31,0.81-0.33,1.75-0.36,2.64
				c-0.04,1.17,0.05,2.35,0.08,3.53c-0.06,0.53-0.27,1.11-0.13,1.58c0.21,0.7,0.56,1.77,1.04,1.89
				C191.92,418.34,192.81,417.82,193.63,417.6z M348.13,386.39c-0.1-0.31-0.38-0.74-0.27-0.9c1.61-2.33,0.11-4.48-0.06-6.46
				c-3.39,0.87-6.58,1.68-9.79,2.5c0.73,5.24,0.73,5.24,6.08,6.32c0.51,0.1,1.01,0.28,0.94,0.26c1.33-0.77,2.25-1.3,3.16-1.82
				c-0.5,0.72-1,1.44-1.58,2.27c1.14,0.23,1.99,0.41,2.88,0.59c-0.18-1.28-0.34-2.4-0.52-3.67
				C348.63,385.86,348.38,386.13,348.13,386.39z M340.04,396c0,1.07,0,2.15,0,3.2c3.87,0,7.42,0,11.06,0
				c-0.18-1.24-0.34-2.32-0.51-3.4c-0.16-1.09-0.35-2.17-0.48-3.26c-0.35-3.01-2.82-4.08-5.29-2.28c-0.15-0.48-0.21-1.31-0.48-1.38
				c-1.69-0.49-3.42-0.8-5.32-1.22c0.21,1.68,0.37,3.02,0.53,4.36C339.72,393.34,339.88,394.67,340.04,396z M271.9,381.9
				c1.17,0.06,2.39,0.35,3.52,0.13c2.3-0.45,4.58-1.07,6.8-1.82c0.84-0.29,1.5-1.11,2.24-1.7c-0.14-0.25-0.29-0.51-0.43-0.76
				c-1.83,0-3.66,0.01-5.49,0c-2.69-0.01-5.39-0.05-8.08-0.02c-0.19,0-0.37,0.51-0.55,0.78c-3.38-0.34-6.75-0.68-10.21-1.03
				c-0.47,3.15-0.86,5.77-1.3,8.7c4.65-1.11,9.02-2.14,13.37-3.23C271.9,382.92,271.87,382.26,271.9,381.9z M288.17,493.86
				c-2.29,4.74-4.58,9.48-7.06,14.61c3.46-0.29,6.42-0.54,9.31-0.78c0-4.8-0.03-9.35,0.02-13.89c0.01-1.21-0.38-1.64-1.55-1.2
				C287.77,492.52,287.43,492.88,288.17,493.86z M273.96,472.79c0.09-0.49,0.19-0.98,0.28-1.47c-0.69,0.02-1.46-0.16-2.05,0.09
				c-4.66,1.97-9.45,3.05-14.41,1.6c-3.99-1.16-7.88-2.71-11.86-4.11c-0.31,2.06-0.65,4.31-1.03,6.79c9.68,0,19.13,0,28.64,0
				C273.71,474.49,273.84,473.64,273.96,472.79z M380.34,420.96c0.11-0.61,0.22-1.22,0.33-1.83c-0.59,0.1-1.18,0.18-1.76,0.3
				c-0.69,0.14-1.38,0.3-2.06,0.46c-1.31,0.31-2.61,0.64-3.93,0.93c-0.99,0.22-2.01,0.62-2.99,0.56c-2.04-0.14-2.55,1.03-2.85,2.64
				c3.87-0.23,7.62-0.46,11.37-0.69c2.53,0,5.06,0.02,7.59,0.01c2.28-0.01,4.72,0.48,6.79-0.2c3.49-1.14,6.74-3.02,10.08-4.59
				c2.6-1.68,3.03-4.19,0.86-6.13c-1.71-1.54-3.62-2.85-5.54-4.13c-0.2-0.13-1.22,0.57-1.52,1.09c-0.61,1.06-1,2.26-1.82,4.22
				c-1.65-1.86-2.83-3.18-4.27-4.81c-0.57,2.92-1.11,5.62-1.64,8.33c-0.48,0.48-0.97,0.95-1.45,1.43c-1.92,0.8-3.84,1.6-5.75,2.4
				C381.3,420.94,380.82,420.95,380.34,420.96z M248.78,234.28c6.06,0.25,12.13,0.51,18.5,0.77c-1.22-3.53-2.23-6.46-3.27-9.46
				c-5.03,1.45-9.88,2.96-14.8,4.19c-1.43,0.36-1.81,0.96-1.81,2.19c-0.72-0.34-1.54-1.1-2.13-0.95c-4.14,1.05-8.23,2.28-12.34,3.46
				c4.86,0.32,9.65,0.33,14.43,0.29C247.84,234.76,248.31,234.45,248.78,234.28z M390.45,573.02c0.63-0.72,1.52-1.34,1.84-2.17
				c4.24-11.02,8.41-22.06,12.58-33.11c2.43-6.44,4.82-12.89,7.23-19.34c0.19-0.44,0.39-0.87,0.58-1.31
				c-0.13-0.06-0.27-0.11-0.4-0.17c-0.18,0.37-0.36,0.75-0.54,1.12c-7.1,15.92-14.19,31.84-21.32,47.74
				c-0.97,2.16-2.06,4.25,0.11,6.36c0.15,0.15-0.01,0.62-0.02,0.94c-0.71-0.75-1.42-1.51-2.21-2.34c-1.59,3.56-3.1,6.95-4.74,10.64
				c1.84-0.11,4.39,0.23,4.63-0.37C389.21,578.47,391.35,576.12,390.45,573.02z M367.41,537.99c-0.05-0.28-0.1-0.56-0.15-0.83
				c-0.11,0.02-0.22,0.04-0.33,0.06c0.1,0.32,0.2,0.64,0.3,0.96c0.06,0.47,0.07,0.96,0.18,1.42c3.42,13.89,6.85,27.77,10.31,41.8
				c0.72-0.04,1.4-0.08,2.22-0.13c-0.08-1.01-0.1-1.88-0.24-2.74c-0.72-4.66-1.24-9.37-2.28-13.96c-1.35-5.98-0.65-12.45-4.1-17.96
				c-0.04-0.07,0.2-0.32,0.32-0.48c0.26,0.12,0.53,0.25,0.94,0.44c-1.69-10.59-3.35-21.04-5.01-31.48c-2.7,0-5.28,0-8.01,0
				c0.54,2.33,0.9,4.51,1.56,6.59c1.71,5.4,1.71,11.38,5.43,16.11c0.1,0.13-0.09,0.49-0.15,0.75
				C368.06,538.36,367.73,538.18,367.41,537.99z M237.23,565.84c-0.27,0.18-0.55,0.37-0.82,0.55c0.49-5.6,0.92-11.2,1.48-16.78
				c0.54-5.35,1.22-10.68,1.81-16.02c0.63-5.66,1.26-11.31,1.83-16.98c0.13-1.31,0.02-2.64,0.02-4.09c-0.9,0.09-1.58,0.17-2.24,0.24
				c-3.42,22.71-6.81,45.24-10.22,67.85c1.28,0.09,2.19,0,3.01,0.25c2.44,0.73,2.81-0.46,2.86-2.54c0.05-2.1,0.53-4.19,0.82-6.28
				c0.39,0.19,0.78,0.37,1.17,0.56c-0.04,0.32-0.13,0.63-0.12,0.95c0.01,0.3,0.12,0.59,0.34,1.5c8.61-20.83,16.96-41.05,25.26-61.16
				c-4.08-0.42-7.87-0.8-11.65-1.22c-1.43-0.16-2.1,0.4-2.04,1.84c-0.27-0.01-0.53-0.02-0.8-0.02c0.09-0.53,0.19-1.06,0.29-1.67
				c-1.88,0-3.74,0-5.5,0c-0.55,4.74-1.12,9.29-1.58,13.86c-0.54,5.35-0.96,10.72-1.49,16.07
				C238.88,550.43,238.04,558.13,237.23,565.84z M328.02,274.66c0.57-1.32,1.05-2.7,1.74-3.96c1.54-2.8,0.29-6.02-2.72-6.76
				c-2.95-0.73-5.9-1.43-8.71-2.11c-2.49,4.07-2.51,8.44-1.66,12.84c0.19,1,1.04,2.31,1.91,2.65c2.02,0.81,4.23,1.12,6.07,1.55
				c0.8-0.97,1.38-1.67,1.95-2.37c-0.12,0.79-0.23,1.58-0.38,2.59c1.82,0.27,3.64,0.54,5.84,0.86c-0.45-3.11-0.86-5.95-1.31-9
				C329.72,272.35,328.87,273.51,328.02,274.66z M350.59,510.16c0.71,0.49,1.36,1.28,2.13,1.41c2.3,0.39,4.63,0.53,6.95,0.77
				c0.03-0.12,0.08-0.2,0.07-0.26c-1.46-6.31-2.91-12.62-4.43-18.91c-0.09-0.38-0.78-0.84-1.23-0.89c-2.88-0.33-5.77-0.55-8.97-0.84
				c0.58,3.22,1.29,5.9,1.49,8.62c0.23,3.03,1.16,5.65,2.96,8.04c0.2,0.26,0.05,0.78,0.07,1.18c-0.58-0.63-1.16-1.26-1.92-2.09
				c0.25,1.61,0.45,2.91,0.67,4.36c0.66,0.04,1.32,0.08,1.97,0.12C350.44,511.07,350.52,510.61,350.59,510.16z M348.82,359.06
				c-0.45,0.91-0.91,1.81-1.44,2.88c5.54,0,10.95,0.05,16.36-0.04c1.08-0.02,2.14-0.62,3.21-0.95c0.51,0.34,1.03,0.97,1.54,0.97
				c15.65,0.05,31.29,0.04,46.41,0.04c-11.11-2.64-22.79-5.46-34.5-8.16c-2.37-0.55-4.83-0.65-7.25-0.95
				c-0.29-0.33-0.53-0.88-0.89-0.96c-4.58-1.13-9.17-2.19-13.64-3.25c-1.16,1.25-2.22,2.4-3.29,3.55c0.56-1.25,1.12-2.5,1.75-3.92
				c-4.4-1.05-8.92-2.12-13.74-3.26c0.9,5.6,1.75,10.92,2.61,16.29C347,360.48,347.91,359.77,348.82,359.06z M250.7,390.51
				c-1.4-0.12-2.87-0.59-4.18-0.3c-8.18,1.85-16.32,3.85-24.47,5.83c-2.28,0.56-4.53,1.23-6.8,1.85c0.03,0.32,0.06,0.64,0.09,0.96
				c12.72,0.52,25.45,0.29,38.14,0.12c0.77-2.61,0.74-2.58-0.65-4.62c-0.33-0.48-0.34-1.17-0.5-1.77c0.41,0.77,0.82,1.54,1.23,2.31
				c0.28-0.25,0.56-0.49,0.84-0.74c0.29-2.06,0.58-4.11,0.88-6.26c-1.41,0.33-2.59,0.69-3.81,0.87
				C250.22,388.96,250.04,389.5,250.7,390.51z M222.11,355.7c-0.8-0.24-1.69-0.85-2.39-0.68c-7.8,1.93-15.58,3.97-23.36,5.99
				c2.22,0.22,4.41,0.21,6.61,0.22c7.18,0.05,14.35,0.13,21.53,0.13c0.52,0,2.19,0.84,1.34-1.09c1.69,0.38,3.39,1.1,5.07,1.08
				c5.85-0.05,11.69-0.32,17.53-0.6c1.71-0.08,3.41-0.49,5.12-0.75c0.12-0.1,0.29-0.31,0.34-0.28c4.04,2.05,5.33,1.47,6.07-2.76
				c0.03-0.16,0.09-0.31,0.11-0.46c0.61-4.06,1.21-8.11,1.84-12.36c-5.85,1.51-11.39,2.94-16.63,4.3c0.33,1.15,0.58,2.01,0.83,2.87
				c-1.24-0.77-1.62-2.81-3.78-2.23c-6.08,1.63-12.21,3.09-18.28,4.76C223.3,354.06,222.75,355.06,222.11,355.7z M279.63,391.07
				c0.87,0.39,1.74,0.79,2.68,1.22c0.42-3.61,0.85-7.34,1.32-11.4c-3.37,0.84-6.34,1.57-9.49,2.35c0.43,0.62,0.7,1.01,0.97,1.39
				c-0.43-0.11-0.86-0.21-1.29-0.33c-0.61-0.18-1.28-0.65-1.82-0.53c-4.18,0.97-8.35,2-12.48,3.16c-0.61,0.17-1.34,1.01-1.46,1.65
				c-0.49,2.49-0.78,5.02-1.12,7.54c-0.33,2.44,0.24,3.1,2.75,3.1c7.16,0.01,14.32,0,21.32,0
				C282.51,395.94,282.17,393.29,279.63,391.07z M411.12,441.1c-0.61-0.41-1.2-1.12-1.82-1.15c-1.17-0.06-2.36,0.29-3.54,0.43
				c-8.62,1.04-17.21,2.56-25.85,2.96c-6.99,0.32-14.04-0.7-21.13-1.13c0.31,1.66,0.67,3.63,1.15,6.24
				c17.59,0,35.09,0.01,52.59-0.05c0.48,0,0.96-0.71,1.43-1.1c0.83,0.49,1.66,0.97,2.49,1.46c-0.92-3.11-2.16-5.7-3.48-8.25
				c-0.27-0.53-0.86-0.89-1.31-1.33C411.47,439.82,411.29,440.46,411.12,441.1z M268.49,266.95c-0.96-1.32-2.03-1.71-3.7-1.04
				c-1.79,0.73-3.77,1.01-5.66,1.5c-5.7,1.49-11.39,2.99-17.17,4.51c1.08,2.4,2.12,4.52,2.98,6.7c0.53,1.35,1.23,1.91,2.78,1.89
				c4.3-0.08,8.61,0.15,12.92,0.09c3.64-0.05,7.28-0.35,10.96-0.54c0.39-3.04,1.49-5.72-0.25-8.34c0.46,0.16,0.91,0.33,1.44,0.52
				c0.41-2.8,0.84-5.67,1.29-8.75c-2.14,0.58-4.01,1.09-5.71,1.55C268.42,265.79,268.46,266.37,268.49,266.95z M311.73,302.43
				c-1.05,2.05-2.1,4.09-3.16,6.17c7.9,1.78,15.74,3.54,23.58,5.31c1.21-2.48,2.39-4.85,3.5-7.25c0.29-0.62,0.58-1.39,0.48-2.03
				c-0.78-4.86-1.66-9.71-2.49-14.51c-1.67-0.19-3.24-0.48-4.81-0.54c-4.76-0.18-10-1.52-12.32,4.71c0.55-1.55,1.11-3.1,1.66-4.63
				c-3.65,0.34-7.41,0.69-11.37,1.05c0.25,5.77,0.5,11.27,0.77,17.43c1.09-1.78,1.81-3.06,2.64-4.25
				C310.6,303.33,311.22,302.91,311.73,302.43z M344.91,545.2c-0.2-0.47-0.4-0.95-0.6-1.42c-0.01-1.48,0.18-2.99-0.05-4.43
				c-0.98-6.14-5.84-10.61-7.29-16.66c-0.48-2.02-2.96-3.56-4.53-5.32c-0.2-0.47-0.4-0.95-0.6-1.42c0.1-0.23,0.2-0.46,0.29-0.69
				c-0.24,0.04-0.48,0.07-0.72,0.11c-2.35,0.21-4.7,0.42-7.14,0.64c0.03,3.66,0.29,6.99,2.48,9.94c1.69,2.27,2.29,4.97,1.69,7.7
				c-0.39,1.79,0.11,3.04,1.13,4.35c0.68,0.88,1.26,1.85,1.79,2.83c2.91,5.39,5.87,10.76,8.67,16.22c2.06,4.02,3.88,8.17,5.86,12.24
				c0.33,0.67,0.81,1.45,1.43,1.75c3.56,1.67,7.17,3.21,11.12,4.94c-0.45-1.07-0.73-1.78-1.04-2.48
				c-4.02-9.12-8.04-18.23-12.06-27.34C345.2,545.84,345.05,545.52,344.91,545.2z M229.18,242.89c-0.13-0.1-0.27-0.2-0.4-0.3
				c0.01,0.19,0.01,0.38,0.02,0.57c3.99,8.8,8.01,17.58,11.93,26.4c0.65,1.47,1.6,1.41,2.77,1.11c4.25-1.09,8.49-2.19,12.73-3.32
				c3.44-0.92,6.88-1.87,10.44-2.85c-0.69-1.13-1.28-1.97-1.74-2.88c-0.79-1.59-1.49-3.22-2.23-4.84c0.77,1.05,1.62,2.05,2.3,3.16
				c2.63,4.3,2.6,4.27,7.45,3.16c1.26-0.29,1.74-0.89,2.06-2.11c0.88-3.41-0.64-6.3-1.68-9.33c-0.99-2.86-2.36-3.68-5.37-3.31
				c-2.95,0.37-5.92,0.62-8.8,0.91c0.77,1.5,1.73,3.35,2.68,5.2c-0.53-0.49-1.14-0.91-1.56-1.48c-1.16-1.55-1.9-3.82-3.42-4.63
				c-3.89-2.04-8.07-3.59-12.23-5.03c-1.93-0.67-4.35-1.34-6.1-0.73C234.97,243.69,232.2,244.53,229.18,242.89z M248.31,388.31
				c1.86-0.32,3.75-0.5,5.56-1.01c0.7-0.2,1.57-1.04,1.72-1.73c0.57-2.54,0.87-5.14,1.27-7.65c-5.49-2.81-10.99-1.89-16.57-1.03
				c0.37,0.74,0.65,1.3,0.93,1.86c-0.57-0.35-1.14-0.72-1.72-1.06c-0.5-0.29-1.03-0.78-1.52-0.76c-4.48,0.19-8.56-1.29-12.63-2.88
				c-7.35-2.86-14.8-4.81-22.67-2.05c-4.16,1.46-8.28,1.86-12.33-0.41c-0.37-0.21-0.95-0.03-1.7-0.03
				c8.35,8.35,16.45,16.5,24.63,24.55c0.57,0.56,1.88,0.78,2.71,0.59c7.62-1.77,15.22-3.61,22.81-5.54
				C241.99,390.34,245.14,389.27,248.31,388.31z M394.69,579.74c1.06,0.44,2.08,1.09,3.18,1.27c1.07,0.17,2.22-0.24,3.33-0.23
				c1.3,0.01,1.85-0.45,2.25-1.79c8.58-28.99,17.24-57.96,25.87-86.94c0.99-3.32,1.95-6.65,2.93-9.98
				c-0.18-0.08-0.36-0.16-0.54-0.25c-0.25,0.36-0.52,0.7-0.74,1.07c-0.16,0.27-0.18,0.67-0.4,0.86c-1.86,1.6-4.17,2.87-5.52,4.81
				c-1.58,2.27-2.42,5.08-3.43,7.72c-9.77,25.51-19.51,51.02-29.21,76.55c-0.29,0.76-0.03,1.74-0.02,2.61
				c-1.11,1.78-2.22,3.56-3.51,5.62c2.51,0,4.26,0,6.03,0C394.81,580.5,394.75,580.12,394.69,579.74z M253.08,576.36
				c0.7-0.11,1.44-0.11,2.08-0.36c5.56-2.16,11.02-4.61,16.68-6.45c2.36-0.77,3.71-1.97,4.83-3.98c2.47-4.41,5.08-8.75,7.64-13.12
				c-0.08,0.5-0.04,1.08-0.27,1.5c-2.69,4.87-5.41,9.71-8.34,14.93c5.02-1.48,9.71-2.87,14.36-4.24c0-3.23-0.13-6.16,0.06-9.07
				c0.08-1.18,1.21-2.29,1.28-3.47c0.19-3.24,0.06-6.51,0.06-10c-0.61,0.3-0.8,0.33-0.86,0.44c-1.63,2.88-3.21,5.78-4.88,8.63
				c-0.32,0.54-0.97,0.88-1.47,1.31c0.55-1.12,0.98-2.32,1.67-3.35c3.76-5.57,6.2-11.39,5.17-18.38c-0.51-3.45-0.18-7.02-0.27-10.53
				c-0.04-1.65-0.16-3.3-0.25-5.01c-3.82-0.41-7.42-0.81-10.98-1.19c-6.11,14.2-12.11,28.06-18.03,41.95
				c-2.89,6.78-5.63,13.62-8.43,20.43c-0.08,0.09-0.16,0.17-0.25,0.26c0.09,0,0.19,0,0.28,0.01
				C253.14,576.56,253.11,576.46,253.08,576.36z M387.01,567.73c0.44,0.17,0.89,0.34,1.45,0.55c11.8-26.53,23.64-53.17,35.49-79.82
				c-0.22-0.22-0.43-0.44-0.65-0.66c-1.96,0.76-4,1.34-5.85,2.3c-3.73,1.93-7.33,4.1-11.03,6.1c-0.67,0.36-1.52,0.48-2.3,0.55
				c-7.55,0.66-15.11,1.29-22.66,1.91c-1.51,0.12-3.06,0.41-4.54,0.21c-3.14-0.42-6.25-1.12-9.37-1.7
				c0.72,4.31,1.63,8.85,2.17,13.44c0.22,1.93,0.51,3.22,2.96,3.09c-3.8,0.47-1.96,3.1-1.75,4.58c1.06,7.79,2.44,15.53,3.67,23.29
				c0.69,4.36,1.15,8.76,4.25,12.3c0.4,0.46,0.4,1.28,0.59,1.93c-0.9-1.13-1.8-2.26-3.13-3.94c1.62,10.21,3.15,19.8,4.8,30.19
				c1.01-1,1.77-1.47,2.11-2.16c1.31-2.65,2.45-5.39,3.73-8.06C387.6,570.46,387.92,569.12,387.01,567.73z M187.36,495.58
				c7.63,28.12,15.21,56.04,22.87,84.27c5.38,0,10.7,0,16.18,0c3.35-22.25,6.73-44.67,10.13-67.28c-4.83,0-9.36,0-13.89,0
				c-2.08,0-4.16-0.04-6.24,0.02c-1.74,0.05-2.46-1.1-3.12-2.4c0.95-0.34,1.89-0.95,2.84-0.96c6.23-0.08,12.47-0.02,18.71-0.01
				c0.76,0,1.52,0,2.22,0c0.71-4.76,1.36-9.16,2-13.46c-2.24-0.73-4.31-1.59-6.45-2.06c-3.15-0.69-6.38-1.66-9.53-1.51
				c-4.2,0.19-7.82-0.79-11.31-2.92c-0.56-0.34-1.9-0.36-2.21,0.02c-1.59,1.94-3.47,1.83-5.64,1.41c-2.01-0.38-4.33-1.06-6.08-0.42
				C194.22,491.61,190.91,493.73,187.36,495.58z M355.77,113.08c-3.73-0.19-7.14-0.45-10.55-0.51c-5.94-0.11-11.94,0.17-17.66-1.7
				c-4.76-1.56-9.56-1.9-14.5-1.87c-2.22,0.01-2.47,0.81-2.19,2.74c0.85,5.73,1.55,11.48,2.25,17.24
				c0.86,7.01,1.64,14.04,2.54,21.05c0.1,0.77,0.59,1.92,1.18,2.14c5.99,2.27,12.04,4.39,18.15,6.58
				C341.96,143.44,348.84,128.31,355.77,113.08z M377.79,188.8c-2.71,0.45-4.77,1.8-7.25,0.58c-4.08-2.01-8.34-2.2-12.61-0.44
				c-2.41,0.99-4.8,2.02-7.25,2.89c-1.07,0.38-2.28,0.57-3.42,0.56c-2.05-0.03-4.09-0.28-6-0.42c-3.71,11.19-7.31,22.05-10.99,33.15
				c7.35,2.49,14.59,4.94,21.84,7.39C360.68,217.92,369.15,203.5,377.79,188.8z M364.47,477.49c21.14,0,41.97,0,63.06,0
				c-2.62-5.6-5.11-11.02-7.7-16.39c-0.28-0.58-1.08-1.11-1.73-1.28c-4-1.01-8.01-1.36-11.92,0.43c-2.82,1.29-5.72,2.44-8.48,3.85
				c-9.51,4.89-19.45,6.25-29.89,3.83c-1.6-0.37-3.22-0.71-5.05-1.11C363.36,470.62,363.92,474.06,364.47,477.49z M253.13,190.54
				c3.69,10.88,7.4,21.72,10.99,32.6c0.47,1.44,1.27,1.22,2.16,0.98c4.37-1.21,8.74-2.44,13.07-3.8c0.64-0.2,1.34-1.08,1.5-1.76
				c0.48-2.09,0.77-4.23,1.02-6.37c0.21-1.88,0.77-3.93,0.27-5.63c-0.99-3.36-2.57-6.56-4.03-9.77c-0.26-0.57-1.01-1.09-1.64-1.29
				c-2.24-0.71-4.7-0.93-6.75-1.97C264.54,190.9,259.2,189.58,253.13,190.54z M345.08,361.84c-0.74-4.99-1.47-9.94-2.2-14.89
				c-0.22-1.49-0.89-2.39-2.52-2.75c-6.04-1.35-12.05-2.86-18.09-4.23c-0.59-0.13-1.73,0.14-1.93,0.55
				c-2.16,4.57-5.87,8.75-3.83,14.47c0.42,1.18,0.52,2.5,0.59,3.77c0.13,2.25,1.23,3.13,3.48,3.11
				C328.73,361.8,336.88,361.84,345.08,361.84z M366.82,242.31c-1.11,0.21-1.76,0.21-2.31,0.45c-2.09,0.91-4.19,1.81-6.21,2.86
				c-3.78,1.96-7.82,1.76-11.88,1.68c-0.8-0.01-2.03,0.11-2.33,0.61c-3.33,5.48-6.51,11.04-9.84,16.78
				c6.68,1.54,13.13,3.02,19.56,4.5C358.11,260.3,362.34,251.55,366.82,242.31z M321.37,193.94c0,1.1-0.06,1.73,0.01,2.36
				c0.45,3.77,0.92,7.55,1.4,11.32c0.62,4.87,1.23,9.74,1.92,14.61c0.07,0.5,0.54,1.14,1,1.35c1.12,0.5,2.34,0.79,3.78,1.24
				c3.63-10.9,7.24-21.72,11.13-33.38C333.86,192.31,327.72,193.11,321.37,193.94z M250.82,291.35c3.31,7.3,6.46,14.32,9.72,21.3
				c0.35,0.74,1.58,1.82,1.98,1.66c1.48-0.59,3.89,0.38,4.28-2.31c1.11-7.61,2.28-15.21,3.43-22.87
				C263.39,287.35,257.42,290.71,250.82,291.35z M348.99,281.17c17.62,0,34.92,0,52.17,0c-0.05-0.06-0.13-0.25-0.24-0.27
				c-15.11-3.51-30.21-7.01-45.33-10.45c-0.5-0.11-1.45,0.19-1.65,0.58C352.26,274.29,350.7,277.61,348.99,281.17z M250.75,437.08
				c-0.47,3.04-0.97,6.24-1.51,9.75c8.7,0,17.22,0,25.93,0c0.72-3.8,1.47-7.74,2.32-12.2C268.37,435.46,259.67,436.26,250.75,437.08
				z M307.93,309.33c0,2.3,0.14,4.3-0.03,6.26c-0.23,2.63,0.21,4.91,2.59,6.39c2.19,1.37,4.3,3.26,6.7,3.8
				c2.95,0.66,6.16,0.16,9.2,0.16c1.82-3.86,3.55-7.54,5.31-11.27C323.63,312.86,315.83,311.1,307.93,309.33z M273.56,341.18
				c2.73,5.96,5.31,11.65,7.96,17.32c0.18,0.39,0.8,0.78,1.23,0.81c1.72,0.09,3.45,0.04,5.25,0.04c1.46-7.62,2.9-15.15,4.4-22.99
				C286.02,337.98,279.99,339.53,273.56,341.18z M353.37,270.02c-5.59-1.34-11.12-2.71-16.66-3.97c-1.05-0.24-2.79-0.46-3.18,0.07
				c-1.01,1.39-2.04,3.21-1.99,4.82c0.1,3.02,0.95,6.01,1.59,9.57c4.57,0.22,9.23,0.49,13.89,0.61c0.53,0.01,1.3-0.74,1.59-1.32
				C350.26,276.58,351.8,273.3,353.37,270.02z M270.83,493.03c-6.42,0.43-12.19,0.81-18.01,1.2c-1.05,5.21-2.02,10.03-3.03,14.99
				c4.63,0,9.1,0.04,13.56-0.05c0.54-0.01,1.36-0.53,1.55-1.01C266.86,503.34,268.72,498.47,270.83,493.03z M264.85,343.41
				c-0.86,5.72-1.71,11.36-2.63,17.48c6.38-0.41,12.47-0.81,18.86-1.22c-2.89-6.35-5.62-12.34-8.33-18.29
				C270,342.09,267.44,342.75,264.85,343.41z M224.84,324.37c0,0.33,0,0.66,0.01,0.99c13.23,0,26.46,0,40,0
				c-0.15-0.67-0.24-1.59-0.57-2.41c-0.77-1.89-1.74-3.71-2.47-5.62c-0.53-1.39-1.22-1.64-2.65-1.29
				c-7.75,1.92-15.52,3.72-23.28,5.58C232.2,322.52,228.52,323.46,224.84,324.37z M324.93,544.75c-0.31,0.89-0.6,1.44-0.7,2.03
				c-0.41,2.27-1.29,4.05-3.87,4.53c-0.58,0.11-1.34,0.82-1.47,1.39c-0.8,3.28-1.43,6.59-2.11,9.88c6.2,1.35,12.02,2.61,17.93,3.89
				C332.94,558.56,329.25,551.68,324.93,544.75z M348.1,514.75c-4.02,0-7.92,0-12.07,0c5.65,10.71,11.13,21.11,16.61,31.5
				c0.17-0.06,0.33-0.13,0.5-0.19C351.45,535.61,349.77,525.15,348.1,514.75z M377.81,325.67c-0.05-0.2-0.09-0.4-0.14-0.61
				c-12.87-2.91-25.75-5.81-38.88-8.77c0.44,2.76,1.01,5.21,1.18,7.69c0.11,1.57,0.55,2.02,2.1,2.02
				c11.11-0.01,22.22,0.08,33.33,0.1C376.2,326.09,377,325.81,377.81,325.67z M394.29,607.36c0.27-0.11,0.54-0.21,0.8-0.32
				c1.97-6.65,3.94-13.29,5.93-20.01c-2.6,0-4.91,0.05-7.22-0.01c-4.42-0.12-7.61,1.7-9.27,5.55
				C387.83,597.57,391.06,602.47,394.29,607.36z M314.29,151.15c-1.74-14.12-3.44-27.81-5.13-41.51c-0.88-0.19-1.71-0.37-2.72-0.59
				c0.16,1.9,0.38,3.61,0.43,5.33c0.35,11.06,0.65,22.12,1.03,33.18c0.02,0.61,0.56,1.5,1.09,1.75
				C310.56,150.01,312.24,150.46,314.29,151.15z M360.9,512.64c2.84,0.19,5.57,0.37,8.35,0.56c-0.82-5.17-1.54-9.99-2.38-14.79
				c-0.16-0.91-0.63-2.21-1.32-2.5c-2.89-1.25-5.91-2.19-9.55-3.49C357.71,499.5,359.27,505.92,360.9,512.64z M253.19,555.53
				c0.24,0.15,0.47,0.3,0.71,0.45c7.07-13.92,14.14-27.83,21.26-41.85c-2.56,0-4.77,0-6.9,0
				C263.21,528.02,258.2,541.78,253.19,555.53z M333.34,264.47c3.38-5.76,6.7-11.44,10.15-17.33c-5.38,0-10.48,0-15.77,0
				c0.94,5.82,1.82,11.26,2.7,16.67C331.42,264.04,332.24,264.23,333.34,264.47z M287.32,193.92c-0.56,3.91-0.75,7.69-1.7,11.27
				c-1.27,4.75,0.05,8.77,2.34,12.74c0.45-0.14,0.89-0.37,1.33-0.39c1.75-0.08,2.57-0.9,2.7-2.69c0.2-2.82,0.61-5.63,0.88-8.45
				c0.41-4.22,0.78-8.45,1.19-12.99C291.63,193.6,289.54,193.76,287.32,193.92z M352.01,399.22c11.71,0,23.12,0,34.52,0
				c0-0.06,0.01-0.12,0.01-0.19c-11.94-2.88-23.88-5.76-36.02-8.69C351.05,393.46,351.53,396.32,352.01,399.22z M270.06,509.19
				c1.63,0,3.01,0.16,4.34-0.04c1.32-0.2,3.28-0.37,3.77-1.22c2.87-5.03,5.39-10.25,8.38-16.08c-3.64,0.24-6.77,0.41-9.9,0.71
				c-0.36,0.03-0.78,0.72-0.95,1.18C273.83,498.78,272,503.86,270.06,509.19z M278.42,234.83c0.71-4.76,1.39-9.29,2.09-13.91
				c-5.32,1.52-10.4,2.98-15.55,4.46c0.93,2.9,1.73,5.61,2.71,8.24c0.2,0.54,1.09,1.13,1.68,1.16
				C272.29,234.89,275.24,234.83,278.42,234.83z M277.47,262.69c1.38,4.02,2.67,7.79,3.97,11.55c1.83,5.29,0.44,4.62,6.22,3.53
				c0.13-0.02,0.23-0.2,0.43-0.39c0.39-5.8,0.79-11.69,1.21-17.84C285.07,260.66,281.32,261.66,277.47,262.69z M270.66,178.84
				c-0.39-1.01-0.85-2.17-1.27-3.34c-0.91-2.54-2.64-3.77-5.41-3.61c-1.99,0.12-4.09,0.43-5.96-0.06c-3.91-1.02-7.21,0.33-10.6,1.86
				c0.58,1.67,1.14,3.27,1.79,5.14C256.33,178.84,263.41,178.84,270.66,178.84z M317.58,164.62c4.93,0,9.75,0,14.73,0
				c0.66-1.44,1.46-3.21,2.32-5.08c-6.16-2.26-12.29-4.51-18.62-6.83C316.54,156.71,317.03,160.45,317.58,164.62z M323.14,222.69
				c-1.15-9.3-2.28-18.35-3.48-28.05c-1.97,4.3-3.71,8.04-5.4,11.8c-0.18,0.41-0.21,0.94-0.15,1.4c0.53,4.1,1.09,8.19,1.65,12.38
				C318.12,221.02,320.56,221.83,323.14,222.69z M244.82,280.34c-1.12-2.52-2.1-4.9-3.27-7.19c-0.21-0.42-1.27-0.73-1.81-0.6
				c-5.4,1.3-10.78,2.68-16.16,4.08c-4.27,1.11-8.52,2.29-12.77,3.44c0.02,0.09,0.05,0.18,0.07,0.27
				C222.11,280.34,233.35,280.34,244.82,280.34z M326.91,235.26c7.74,0,15.21,0.04,22.68-0.07c0.7-0.01,1.39-0.97,2.5-1.81
				c-7.75-2.62-14.81-5.01-22.08-7.47C328.95,229.11,327.98,232.05,326.91,235.26z M325.97,180.76c6.27,0,12.22,0,18.22,0
				c0.6-1.88,1.22-3.8,1.83-5.69c-5.55-2.74-11.2-2.39-16.85-1.48C328.15,175.86,327.14,178.13,325.97,180.76z M349.72,466.82
				c0.77,3.11,1.48,6.22,2.35,9.3c0.15,0.55,0.9,1.31,1.4,1.32c3.32,0.12,6.66,0.06,10.1,0.06c-0.57-3.59-1.1-6.98-1.69-10.68
				C357.9,466.82,353.89,466.82,349.72,466.82z M289.45,258.64c0.2-3.32,0.39-6.35,0.58-9.45c-3.55,0.34-6.76,0.6-9.96,1.01
				c-0.51,0.07-1.26,0.76-1.35,1.25c-0.58,3.33-1.01,6.68-1.55,10.36C281.43,260.72,285.4,259.69,289.45,258.64z M281.22,234.92
				c3.48,0,6.56,0,9.49,0c1.8-5.98-1.27-10.82-3.37-15.92c-1.28,0.36-2.54,0.71-3.91,1.09
				C282.71,224.94,281.99,229.78,281.22,234.92z M321.25,338.9c6.93,1.64,13.87,3.28,20.98,4.96c-0.29-1.97-0.59-3.56-0.75-5.18
				c-0.32-3.22-0.77-3.71-4.04-3.62c-3.95,0.11-7.9,0.55-11.84,0.44C323.11,335.43,321.77,336.24,321.25,338.9z M329.51,263.58
				c-0.87-5.52-1.72-10.91-2.68-16.99c-1.71,0.82-3.87,1.15-4.32,2.21c-1.67,3.92-2.78,8.08-4.12,12.22
				C322.1,261.88,325.68,262.7,329.51,263.58z M342.81,438.58c0.84,3.41,1.54,6.27,2.24,9.14c4.63,0,9.14,0,13.76,0
				c-0.2-1.31-0.48-2.47-0.52-3.64c-0.06-1.62-0.68-2.61-2.35-2.92C351.69,440.35,347.44,439.49,342.81,438.58z M310.91,378.85
				c-1.36,0-2.59,0-3.6,0c0,6.88,0,13.6,0,20.35c2.3,0,4.26,0,6.32,0C312.72,392.34,311.82,385.61,310.91,378.85z M316.79,235.09
				c2.93,0,5.37,0,7.95,0c-0.48-3.51-0.92-6.89-1.44-10.24c-0.09-0.55-0.42-1.35-0.84-1.51c-2.22-0.82-4.5-1.48-6.95-2.25
				C315.95,225.94,316.36,230.46,316.79,235.09z M296.39,257.91c-3.56,0.12-4.14,0.63-4.45,4.11c-0.04,0.4-0.13,0.79-0.16,1.18
				c-0.31,4.57-0.6,9.14-0.91,13.77c3.69-0.51,5.45-1.78,5.5-4.1C296.45,267.94,296.39,263.02,296.39,257.91z M242.99,509.56
				c5.79,0.09,5.79,0.09,6.85-5.02c0.05-0.23,0.21-0.43,0.25-0.66c0.57-2.96,1.12-5.92,1.71-9.03c-2.61,0.32-4.87,0.59-7.32,0.89
				C243.98,500.36,243.49,504.95,242.99,509.56z M332.62,314.8c-1.8,3.81-3.48,7.37-5.22,11.06c4.23,0,8.12,0,11.99,0
				c-0.28-1.87-0.61-3.64-0.79-5.42c-0.41-4.13-0.38-4.12-4.53-5.14C333.62,315.19,333.19,315,332.62,314.8z M344.84,181.26
				c8.94,0,17.65,0,26.62,0c-8.31-2.12-16.38-4.18-24.58-6.27C346.21,177.06,345.58,178.99,344.84,181.26z M291,308
				c0.93-0.67,2.77-1.36,2.82-2.16c0.28-4.63,0.14-9.29,0.14-14.06c-1.57,0.21-3.37,0.46-5.35,0.73
				C288.62,297.63,286.13,302.99,291,308z M315.7,163.9c-0.07-1.22-0.09-2.22-0.19-3.22c-0.49-4.8-0.21-10.13-7.04-10.8
				c-0.14-0.01-0.3,0.05-0.53,0.1c0.46,4.43,0.92,8.85,1.4,13.45C311.58,163.6,313.61,163.75,315.7,163.9z M299.47,109.85
				c0,3.51-0.08,7.06,0.02,10.6c0.17,6.12,0.37,12.25,0.74,18.37c0.13,2.11,0.78,4.2,1.2,6.29c0.08-0.04,0.15-0.09,0.23-0.13
				c0.24-11.92,0.48-23.85,0.72-35.82C301.52,109.37,300.7,109.56,299.47,109.85z M329.02,510.02c-1.35-3.06-2.59-5.89-3.84-8.73
				c-1.59-3.62-2.22-3.94-6.53-3.32C318.32,504.73,319.46,508.59,329.02,510.02z M321.96,247.44c-2.69-0.16-5.2-0.3-8.04-0.46
				c0.42,4.28,0.77,8.37,1.27,12.44c0.06,0.47,0.9,1.15,1.41,1.18c0.43,0.02,1.14-0.68,1.32-1.2
				C319.27,255.59,320.52,251.76,321.96,247.44z M287.38,174c-5.94,3.81-11.7,2.57-17.74,0.21c0.57,1.42,0.87,2.4,1.34,3.29
				c0.34,0.64,0.89,1.65,1.37,1.67c4.76,0.12,9.52,0.08,14.37,0.08C286.91,177.77,287.1,176.23,287.38,174z M276.86,263.56
				c-0.62,4.26-1.21,7.86-1.66,11.49c-0.4,3.2,1.07,4.62,4.14,4.14c0.85-0.13,1.7-0.28,2.69-0.44
				C280.34,273.78,278.69,268.94,276.86,263.56z M342.91,291.7c-2.87-0.54-5.42-1.02-8.29-1.57c0.73,4.64,1.44,9.11,2.22,14.03
				C338.96,299.8,340.91,295.79,342.91,291.7z M262.06,158c-5.27,1.81-10.44,3.59-16.24,5.59c6.59,0,12.44,0,18.56,0
				C263.57,161.64,262.86,159.93,262.06,158z M309.92,235.09c-0.51-5.13-1.01-10.08-1.52-15.19c-3.44,4.7-3.45,9.85-3.27,15.19
				C306.69,235.09,308.09,235.09,309.92,235.09z M319.49,180.57c1.42,0,2.76,0.05,4.09-0.02c0.57-0.03,1.44-0.14,1.63-0.51
				c1.09-2.1,2.02-4.28,3.18-6.82c-3.51,0.18-6.48,0.33-9.67,0.49C319.01,176.2,319.24,178.29,319.49,180.57z M349.29,165.39
				c0.06-0.14,0.13-0.29,0.19-0.43c-4.66-1.7-9.32-3.41-14.06-5.14c-0.8,1.83-1.53,3.5-2.44,5.57
				C338.71,165.39,344,165.39,349.29,165.39z M305.39,246.34c0.34,3.28,0.88,6.48,0.96,9.7c0.06,2.43,1.17,2.95,3.59,2.66
				c0-2.77-0.09-5.54,0.02-8.3c0.17-4.06,0.23-4.06-3.77-4.16C305.97,246.23,305.75,246.29,305.39,246.34z M297.23,246.85
				c-4.58,0.84-4.56,0.84-4.68,4.95c-0.06,1.97-0.21,3.93-0.33,6.12c1.72-0.45,3.27-0.86,5.02-1.32
				C297.23,253.34,297.23,250.17,297.23,246.85z M317.88,180.5c-0.17-1.67-0.38-3-0.42-4.33c-0.04-1.4-0.57-1.96-2.03-1.87
				c-1.84,0.12-3.69,0.03-5.53,0.03c0,1.76,0,3.76,0,5.74C312.66,180.22,315.18,180.35,317.88,180.5z M421.4,459.96
				c-0.29,0.23-0.58,0.45-0.87,0.68c2.34,5.02,4.77,10,6.98,15.08c0.81,1.86,1.85,2.31,3.79,1.58c-2.41-4.79-4.74-9.57-7.23-14.26
				C423.46,461.86,422.31,460.97,421.4,459.96z M306.91,523.08c0-3.53,0.02-6.95-0.01-10.36c-0.03-3.95-0.13-7.89-0.11-11.84
				c0-0.52,0.57-1.03,0.84-1.57c0.09-0.19,0.07-0.43,0.13-0.8c-0.66,0.05-1.23,0.09-1.37,0.1c-0.55,2.68-1.06,5.07-1.51,7.47
				c-0.11,0.6-0.12,1.23-0.08,1.84c0.18,2.29,0.94,4.7,0.46,6.84c-0.66,2.99,0.85,5.45,1.04,8.18
				C306.31,522.97,306.59,523,306.91,523.08z M311.9,193.37c0.58,4.15,1.09,7.82,1.6,11.5c0.18-0.01,0.36-0.03,0.54-0.04
				c1.61-3.54,3.21-7.09,4.87-10.73C316.63,193.87,314.53,193.65,311.9,193.37z M246.68,173.84c-5.04,1.86-9.9,3.66-14.77,5.46
				c0.02,0.12,0.04,0.23,0.06,0.35c5.38-0.36,10.75-0.72,16.2-1.08C247.67,176.99,247.21,175.51,246.68,173.84z M214.89,597.01
				c3.02-2.11,5.83-4.09,8.8-6.17c-3.7-0.52-7.21-1.02-10.93-1.55C213.51,592.03,214.19,594.48,214.89,597.01z M293.68,378.88
				c-0.25,0-0.5,0.01-0.74,0.01c-1.08,6.74-2.15,13.48-3.24,20.29c1.02,0,1.86,0,3.03,0C293.04,392.34,293.36,385.61,293.68,378.88z
				 M289.14,179.68c2.12,0,3.91,0,5.94,0c0.11-2.09,0.22-4.1,0.33-6.2c-2.01-0.24-3.7-0.45-5.56-0.68
				C289.6,175.22,289.39,177.3,289.14,179.68z M307.09,340.12c-0.16,0.02-0.32,0.04-0.49,0.07c0,6.09,0,12.18,0,18.36
				c0.92,0,1.76,0,3.04,0C308.78,352.29,307.93,346.2,307.09,340.12z M211.4,600.49c2.63-1.47,3.09-3.36,1.93-5.81
				c-0.46-0.98-0.8-2.08-0.87-3.15c-0.2-2.81-1.95-2.68-4.11-2.43C209.41,593.03,210.41,596.76,211.4,600.49z M300.31,209.66
				c0-5.53,0-11.05,0-16.66c-0.67,0.06-1.35,0.13-1.69,0.16C296.57,199.02,299.12,204.25,300.31,209.66z M315.13,348.92
				c1.75-3.54,3.19-6.45,4.68-9.46c-2.08-0.5-4.08-0.99-6.53-1.59C313.9,341.57,314.46,344.9,315.13,348.92z M272.26,338.23
				c0.94,2.05,0.94,2.05,2.58,1.66c2.82-0.67,5.65-1.29,8.46-2.01c3.11-0.8,6.19-1.7,9.29-2.56c-0.07-0.29-0.13-0.59-0.2-0.88
				C285.71,335.7,279.03,336.96,272.26,338.23z M278.53,195.66c1.4,3.37,2.73,6.56,4.27,10.25c0.61-3.99,1.13-7.4,1.67-11
				C282.37,195.18,280.59,195.4,278.53,195.66z M299.65,148.23c0,4.95-0.01,9.75,0.03,14.56c0,0.33,0.42,0.66,0.64,0.99
				c0.28-0.35,0.7-0.67,0.8-1.07c0.17-0.68,0-1.45,0.19-2.11C302.6,156.24,302.41,152.11,299.65,148.23z M243.64,496.03
				c-0.26-0.2-0.51-0.39-0.77-0.59c-0.4,0.53-1.06,1.02-1.16,1.6c-0.7,4.13-1.28,8.27-1.92,12.56c0.78,0.04,1.45,0.07,2.34,0.11
				C242.64,505.06,243.14,500.55,243.64,496.03z M306.63,259.1c0.88,10.28,1,10.75,3.13,11.7c0-3.7,0-7.29,0-10.89
				C308.64,259.62,307.75,259.39,306.63,259.1z M296.24,221.14c-0.21,0-0.42-0.01-0.63-0.01c0,4.65,0,9.31,0,13.9
				c0.7,0,1.63,0,2.85,0C297.71,230.29,296.97,225.72,296.24,221.14z M283.6,473.03c2.32-0.82,4.64-1.61,6.93-2.47
				c0.37-0.14,0.74-0.54,0.87-0.91c0.07-0.21-0.33-0.83-0.56-0.85c-2.21-0.2-4.47-0.58-6.62-0.24c-0.47,0.07-0.5,2.82-0.73,4.34
				C283.49,472.95,283.57,473,283.6,473.03z M292.4,435.97c-1.8-0.1-3.58-0.19-5.54-0.29c0,2.02,0,3.88,0,6.31
				C288.82,439.82,293.04,440.79,292.4,435.97z M311.32,467.16c-3.81-0.12-4.19,0.63-3.1,5.92c1.09,0.1,2.24,0.2,3.67,0.33
				C311.69,471.14,311.51,469.13,311.32,467.16z M339.45,438.3c0.72,2.71,1.42,5.21,2.03,7.73c0.37,1.5,1.06,2.22,2.69,1.44
				c-0.56-2.21-1.34-4.39-1.61-6.63C342.33,438.89,341.37,438.32,339.45,438.3z M324.93,224.3c0.41,3.31,0.81,6.51,1.27,10.27
				c0.74-2.13,1.3-3.66,1.8-5.21C329.26,225.51,329.25,225.51,324.93,224.3z M298.58,334.26c0.76,4.88,1.48,9.44,2.19,14
				c0.09-0.01,0.18-0.03,0.27-0.04c0-4.51,0-9.01,0-13.57C300.3,334.54,299.68,334.44,298.58,334.26z M300.54,306.77
				c0.19-0.03,0.87-0.08,0.87-0.14c0.05-5.05,0.05-10.1,0.05-15.15c-0.3,0-0.61,0-0.91,0C300.54,296.56,300.54,301.63,300.54,306.77
				z M306.26,85.6c-0.12,0-0.24,0-0.37,0c0,4.72-0.04,9.44,0.07,14.16c0.01,0.48,0.94,0.94,1.44,1.41c0.21-0.15,0.42-0.3,0.64-0.44
				C307.44,95.69,306.85,90.65,306.26,85.6z M266.43,314.34c-1.7,0.45-3.12,0.82-4.59,1.21c1.06,2.32,2.04,4.45,3.31,7.23
				C265.63,319.61,266.01,317.1,266.43,314.34z M313.38,335.63c-0.13,0.18-0.26,0.36-0.39,0.53c0.53,0.42,0.99,1.01,1.59,1.22
				c0.95,0.33,2,0.38,3,0.61c3,0.69,3.09,0.64,3.66-2.36C318.62,335.63,316,335.63,313.38,335.63z M332.99,314.22
				c1.8,0.3,3.14,0.53,4.71,0.8c-0.43-2.72-0.82-5.11-1.27-7.93C335.21,309.63,334.18,311.76,332.99,314.22z M300.75,316.37
				c0.23-0.14,0.47-0.28,0.7-0.42c0-2.3,0.05-4.6-0.04-6.89c-0.02-0.47-0.51-0.92-0.79-1.37c-0.27,0.48-0.75,0.95-0.78,1.44
				c-0.13,1.9-0.19,3.81-0.11,5.72C299.76,315.36,300.39,315.86,300.75,316.37z M272.85,340.5c-0.9-0.69-1.5-1.54-2.08-1.53
				c-1.77,0.04-3.53,0.41-5.44,0.67c-0.07,0.85-0.13,1.68-0.22,2.78C267.63,341.8,269.87,341.24,272.85,340.5z M291.4,217.78
				c-1.27,0.41-2.25,0.73-3.28,1.07c1.05,2.41,2,4.61,2.96,6.82c0.11-0.05,0.22-0.1,0.32-0.15
				C291.4,223.04,291.4,220.58,291.4,217.78z M300.47,179.98c0.66-5.66,0.66-5.66-1.63-5.43c0,1.78,0,3.56,0,5.43
				C299.43,179.98,299.95,179.98,300.47,179.98z M252.12,170.9c0-0.18,0-0.35,0-0.53c-1.96-0.35-3.92-0.7-6.15-1.11
				c0.48,1.49,0.81,2.5,1.13,3.51C248.82,172.13,250.47,171.52,252.12,170.9z M284.86,212.86c-0.13,0-0.27,0-0.4,0
				c-0.26,2-0.51,4-0.8,6.26c1.3-0.36,2.22-0.62,3.32-0.93C286.23,216.29,285.54,214.57,284.86,212.86z M302.08,91.96
				c-0.22-0.02-0.44-0.04-0.66-0.06c-0.27,2.29-0.41,4.61-0.87,6.87c-0.31,1.52,0.2,1.73,1.53,1.45
				C302.08,97.47,302.08,94.71,302.08,91.96z M294.22,358.91c1.68,0.64,2.25,0.21,2.06-1.26c-0.22-1.72-0.38-3.45-0.57-5.18
				c-0.1-0.02-0.2-0.04-0.31-0.06C295.02,354.53,294.63,356.66,294.22,358.91z M272.98,249.35c0.79,2.35,1.38,4.1,1.97,5.86
				c0.12,0,0.25-0.01,0.37-0.01c0.26-1.59,0.52-3.18,0.81-4.95C275.19,249.97,274.35,249.73,272.98,249.35z M293.09,312.76
				c0.2,0.03,0.41,0.07,0.61,0.1c0.1-1.67,0.21-3.34,0.32-5.09c-1.15,0.27-2.03,0.47-3.13,0.73
				C291.69,310.04,292.39,311.4,293.09,312.76z M295.22,120.92c-0.09,0-0.17-0.01-0.26-0.01c-0.19,3.27-0.38,6.55-0.57,9.82
				c0.27,0.01,0.55,0.02,0.82,0.03C295.22,127.48,295.22,124.2,295.22,120.92z M258.22,406.92c-0.05-0.26-0.1-0.52-0.15-0.78
				c-1.59,0.33-3.18,0.67-4.77,1c0.07,0.32,0.14,0.63,0.22,0.95C255.09,407.7,256.66,407.31,258.22,406.92z M212.3,636.52
				c0.07-0.12,0.14-0.25,0.21-0.37c-0.13-0.01-0.27-0.04-0.4-0.02c-0.04,0-0.11,0.16-0.09,0.18
				C212.09,636.39,212.2,636.45,212.3,636.52z M295.63,219.89c-0.05,0.06-0.15,0.12-0.14,0.16c0.02,0.11,0.09,0.2,0.14,0.31
				c0.05-0.05,0.15-0.11,0.14-0.15C295.75,220.11,295.69,220.01,295.63,219.89z"/>
			<path class="st32" d="M388.94,673.78c-0.17-0.96-0.43-1.92-0.48-2.88c-0.15-2.85-0.29-5.71-0.31-8.57
				c-0.03-3.35,0.07-6.71,0.11-10.06c0.01-0.46,0.02-0.92,0.03-1.38c0.04-1.25-0.28-2.66,0.19-3.71c1.24-2.74,2.81-5.33,4.33-7.94
				c0.25-0.44,0.9-0.65,1.37-0.96c-3.18,7.58-3.16,15.61-3.25,23.62c-0.01,0.7,0.74,1.48,1.27,2.12c1.53,1.85,2.45,3.82,1.08,6.09
				c-0.48,0.79-1.42,1.32-2.17,1.94C390.39,672.64,389.66,673.2,388.94,673.78z"/>
			<path class="st33" d="M199.41,555.66c-0.14,0.2-0.29,0.39-0.43,0.59c-2.74-10.26-5.53-20.51-8.22-30.78
				c-2.59-9.88-5.1-19.79-7.64-29.69c0.3,0.15,0.59,0.3,0.89,0.45c3.63,13.81,7.29,27.61,10.89,41.42
				C196.46,543.64,197.91,549.66,199.41,555.66z"/>
			<path class="st32" d="M212.88,676.19c0.95-0.14,2.9-3.28,2.43,0.81c1.78,0.42,2.32,1.85,2.74,3.39c0.33,1.19,0.51,2.46,1.05,3.55
				c0.79,1.59,1.84,3.05,2.99,4.91c-1.15,0.36-2.04,0.65-3.13,0.99c0.32-2.4-1.12-2.13-2.37-2.12c-0.33-0.79-0.65-1.59-0.98-2.38
				c0.44-0.12,0.89-0.23,1.33-0.35c-0.01-0.15-0.02-0.29-0.03-0.44c-0.54-0.07-1.08-0.14-1.62-0.21
				C214.49,681.63,213.68,678.91,212.88,676.19z"/>
			<path class="st34" d="M209.41,664.77c-0.18,0.01-0.35,0.02-0.53,0.02c2.21-2.87,1.61-6.06,1.29-9.33
				c-0.34-3.46-0.2-6.97-0.27-10.46c0.47,0.91,1.05,1.79,1.4,2.75c1.38,3.81,1.47,7.79,1.53,11.78c0.01,0.92,0.29,1.84,0.44,2.75
				c0.32,0.83,0.64,1.65,0.95,2.48c-0.18,0.16-0.36,0.32-0.54,0.49c-0.48-0.49-0.97-1.4-1.42-1.38
				C211.31,663.92,210.36,664.44,209.41,664.77z"/>
			<path class="st28" d="M245.86,229.59c-3.66-5.95-7.36-11.89-10.97-17.87c-2.47-4.09-4.84-8.24-7.26-12.37
				c0.14-0.14,0.28-0.27,0.42-0.41c6.08,10.07,12.15,20.14,18.23,30.22C246.14,229.3,246,229.44,245.86,229.59z"/>
			<path class="st35" d="M206.6,608.65c2.73,0.15,5.46,0.31,8.19,0.43c1.14,0.05,2.28,0.01,3.9,0.01c-3.21,1.22-5.82,2.22-8.55,3.26
				c-0.07-1.89-1.21-1.67-3.02-1.54c-1.75,0.12-3.6-1.06-5.4-1.67C203.34,608.97,204.97,608.81,206.6,608.65z"/>
			<path class="st35" d="M209.02,632.52c1.08,0.07,2.19,0.03,3.22,0.29c0.28,0.07,0.63,1.41,0.43,1.6c-0.85,0.78-0.93,2.57-2.8,2.14
				c-0.71-0.16-1.53,0.18-2.3,0.3C208.05,635.41,208.54,633.97,209.02,632.52z"/>
			<path class="st33" d="M172.38,456.02c0.4,0.01,0.8,0.01,1.2,0.02c0,0.31-0.06,0.64,0.02,0.93c1.69,6.55,3.39,13.09,5.08,19.64
				c-0.31,0.15-0.62,0.31-0.93,0.46c-1.04-4.39-2.05-8.8-3.15-13.18C173.94,461.25,173.13,458.64,172.38,456.02z"/>
			<path class="st33" d="M199.41,557.68c0.2-0.01,0.4-0.02,0.61-0.03c1.79,6.73,3.58,13.46,5.37,20.19
				c-0.22,0.22-0.44,0.44-0.65,0.65C202.96,571.56,201.19,564.62,199.41,557.68z"/>
			<path class="st36" d="M434.6,477.54c-0.29-0.14-0.58-0.27-0.86-0.41l-0.12,0.07c0.26-0.74,0.55-1.47,0.76-2.23
				c1.21-4.43,2.39-8.86,3.58-13.29l-0.05,0.03c0.18,0,0.36,0.01,0.54,0.01c0.18,0.01,0.36,0.02,0.54,0.03
				c-1.4,4.87-2.8,9.75-4.18,14.62C434.7,476.76,434.67,477.15,434.6,477.54z"/>
			<path class="st28" d="M227.63,199.35c-2.48-4.04-4.96-8.08-7.44-12.11c0.13-0.17,0.26-0.33,0.38-0.5
				c2.49,4.07,4.98,8.13,7.47,12.2C227.91,199.07,227.77,199.21,227.63,199.35z"/>
			<path class="st34" d="M242.59,111.01c0.32,0.18,0.65,0.36,0.97,0.55c1.42,3.49,2.85,6.98,4.27,10.48c-0.18,0-0.36,0.01-0.54,0.01
				C245.73,118.36,244.16,114.68,242.59,111.01z"/>
			<path class="st34" d="M208.57,621.97c1.87,1.27,1.94,4.36,0.13,5.32C208.65,625.51,208.61,623.74,208.57,621.97z"/>
			<path class="st33" d="M208.89,338.98c-1.75-2.11-3.5-4.22-5.24-6.33c0.18-0.04,0.35-0.08,0.53-0.12
				c1.74,2.04,3.49,4.08,5.23,6.12C209.23,338.76,209.06,338.87,208.89,338.98z"/>
			<path class="st34" d="M230.13,106.28c0.15,0.91,0.3,1.82,0.45,2.73c-0.91,0-1.82,0-2.72,0c-0.12-0.2-0.23-0.39-0.35-0.59
				C228.38,107.71,229.26,107,230.13,106.28z"/>
			<path class="st33" d="M212.72,343.78c-1.28-1.6-2.55-3.2-3.83-4.81c0.17-0.11,0.34-0.22,0.51-0.33c1.28,1.6,2.57,3.2,3.85,4.81
				C213.08,343.57,212.9,343.68,212.72,343.78z"/>
			<path class="st28" d="M240.86,345.14c1.56,0.07,2.41,0.77,2.21,2.43C242.33,346.76,241.59,345.95,240.86,345.14z"/>
			<path class="st28" d="M377.92,346.59c0.66-0.65,1.33-1.29,1.99-1.94C379.24,345.29,378.58,345.94,377.92,346.59z"/>
			<path class="st28" d="M216.36,348.39c-0.6-0.72-1.2-1.44-1.8-2.16c0.19-0.15,0.38-0.3,0.57-0.45c0.53,0.73,1.05,1.46,1.58,2.19
				C216.59,348.11,216.47,348.25,216.36,348.39z"/>
			<path class="st28" d="M381.3,342.77c0.49-0.82,0.97-1.65,1.46-2.47C382.27,341.13,381.79,341.95,381.3,342.77z"/>
			<path class="st28" d="M376.5,349.01c0.49-0.82,0.97-1.65,1.46-2.47C377.47,347.36,376.99,348.19,376.5,349.01z"/>
			<path class="st28" d="M215.29,684.35c0.54,0.07,1.08,0.14,1.62,0.21c0.01,0.15,0.02,0.29,0.03,0.44
				c-0.44,0.12-0.89,0.23-1.33,0.35C215.5,685.01,215.4,684.68,215.29,684.35z"/>
			<path class="st28" d="M386.1,336.54c0.49-0.66,0.99-1.31,1.48-1.97C387.09,335.23,386.6,335.88,386.1,336.54z"/>
			<path class="st28" d="M384.68,338.7c-0.5-1.39,0.16-2.01,1.47-2.21C385.66,337.22,385.17,337.96,384.68,338.7z"/>
			<path class="st28" d="M379.86,344.69c0.49-0.66,0.99-1.31,1.48-1.97C380.85,343.38,380.36,344.04,379.86,344.69z"/>
			<path class="st28" d="M216.71,347.96c0.57,0.6,1.14,1.19,1.7,1.79c-0.17,0.17-0.34,0.33-0.51,0.5c-0.52-0.62-1.03-1.24-1.55-1.86
				C216.47,348.25,216.59,348.11,216.71,347.96z"/>
			<path class="st28" d="M375.06,350.93c0.49-0.66,0.99-1.31,1.48-1.97C376.05,349.62,375.56,350.27,375.06,350.93z"/>
			<path class="st28" d="M382.72,340.35c0.58-0.49,1.17-0.97,1.75-1.46C383.89,339.38,383.3,339.87,382.72,340.35z"/>
			<path class="st28" d="M218.91,350.6c0.46,0.51,0.93,1.03,1.39,1.54c-0.16,0.14-0.31,0.29-0.47,0.43
				c-0.47-0.51-0.94-1.02-1.41-1.53C218.59,350.89,218.75,350.74,218.91,350.6z"/>
			<path class="st32" d="M388.01,677.14c0.14-0.48,0.28-0.96,0.42-1.44C388.29,676.18,388.15,676.66,388.01,677.14z"/>
			<path class="st33" d="M213.26,343.46c0.33,0.4,0.65,0.8,0.98,1.21c-0.16,0.18-0.33,0.35-0.49,0.53
				c-0.34-0.47-0.68-0.94-1.03-1.41C212.9,343.68,213.08,343.57,213.26,343.46z"/>
			<path class="st28" d="M213.75,345.19c0.16-0.18,0.33-0.35,0.49-0.53c0.13,0.38,0.25,0.76,0.38,1.13
				C214.33,345.6,214.04,345.39,213.75,345.19z"/>
			<path class="st34" d="M208.13,665.53c-0.14,0.18-0.28,0.37-0.42,0.55c-0.13-0.13-0.25-0.27-0.38-0.4
				C207.59,665.63,207.86,665.58,208.13,665.53z"/>
			<path class="st37" d="M347.45,172.34c-0.1,0.08-0.2,0.17-0.3,0.26c-0.09-0.13-0.19-0.26-0.28-0.39c0.12-0.06,0.24-0.17,0.36-0.17
				C347.3,172.04,347.36,172.22,347.45,172.34z"/>
			<path class="st38" d="M201.29,329.38c0.16,0,0.32,0,0.49,0c-0.02,0.25-0.03,0.5-0.05,0.75
				C201.59,329.88,201.44,329.63,201.29,329.38z"/>
			<polygon class="st34" points="208.45,665.15 208.46,665.15 208.38,665.05 			"/>
			<path class="st37" d="M348.19,170.5c0.16-0.13,0.31-0.27,0.47-0.4C348.51,170.23,348.35,170.36,348.19,170.5z"/>
			<path class="st39" d="M190.28,414.7c-0.03-1.18-0.12-2.35-0.08-3.53c0.03-0.89,0.05-1.83,0.36-2.64
				c0.39-1.04,1.07-1.97,1.62-2.95c0.06,0.04,0.12,0.08,0.18,0.12c-0.07-0.03-0.13-0.07-0.2-0.1c2.17-1.81,4.64-1.81,7.31-1.49
				c3.13,0.38,6.3,0.38,9.46,0.52c4.17,0.18,8.34,0.34,12.51,0.51c0.49,0.14,0.97,0.28,1.46,0.42c0.32,0,0.63,0,0.95,0
				c0.88,2.01-0.75,1.41-1.58,1.44c-4.54,0.15-9.38-0.92-12.81,3.39c-2.18-0.1-4.57,0.56-5.89-1.83c-2.22,1.47-4.54,2.51-6.16,4.23
				c-1.36,1.45-4.4,1.78-3.79,4.8l0,0c-1.27-0.07-2.75,0.15-2.23-2C191.45,415.4,190.67,415,190.28,414.7z"/>
			<path class="st39" d="M387.54,418.53c0.48-0.48,0.97-0.95,1.45-1.43c1.38-0.08,2.77-0.15,4.3-0.24c1.3-0.94,2.85-2.08,4.45-3.15
				c0.12-0.08,0.56,0.33,0.85,0.51c-0.04,0.07-0.07,0.13-0.11,0.2c0.04-0.07,0.07-0.14,0.11-0.2c1.16-0.11,2.31-0.21,3.39-0.31
				c0.32,1.58,0.63,3.11,0.94,4.64c-3.35,1.57-6.6,3.45-10.08,4.59c-2.06,0.67-4.51,0.19-6.79,0.2c-2.53,0.01-5.06,0-7.59-0.01
				c0.63-0.79,1.26-1.57,1.89-2.36c0.48-0.01,0.96-0.02,1.45-0.02c1.74,0,3.48,0,5.07,0C387.11,420.04,387.33,419.29,387.54,418.53z
				"/>
			<path class="st32" d="M209.47,410.4c3.43-4.31,8.28-3.25,12.81-3.39c0.83-0.03,2.46,0.57,1.58-1.44
				c0.75-0.15,1.52-0.48,2.25-0.43c3.4,0.24,6.78,0.67,10.18,0.88c4,0.25,8.02,0.37,12.03,0.52c0.85,0.03,1.7,0,2.55,0
				c0.06,0.24,0.11,0.48,0.17,0.72c-0.79,0.24-1.57,0.53-2.37,0.7c-1.73,0.36-3.86-0.88-5.16,1.3c-0.07,0.12-0.45,0.11-0.68,0.08
				c-4.09-0.44-8.17-0.95-12.26-1.31c-1.46-0.13-3.01-0.15-4.41,0.21c-0.73,0.19-1.3,1.28-1.78,2.06c-0.39,0.64-0.55,1.43-0.91,2.42
				c-0.56-1.08-0.81-2.02-1.42-2.55c-0.39-0.34-1.31-0.06-2.11-0.06c-0.26-0.28-0.82-0.86-1.38-1.45c-0.2,0.13-0.39,0.26-0.59,0.38
				c-0.08,1.17-0.17,2.35-0.3,4.18c-0.77-1.49-1.26-2.44-2-3.88c-1.52,1.19-2.97,2.36-4.46,3.47c-0.35,0.26-0.85,0.31-1.27,0.46
				C209.79,412.32,209.63,411.36,209.47,410.4z"/>
			<path class="st32" d="M402.92,418.55c-0.31-1.53-0.62-3.06-0.94-4.64c-1.08,0.1-2.23,0.21-3.39,0.31l0,0
				c-0.29-0.18-0.74-0.59-0.85-0.51c-1.59,1.07-3.14,2.21-4.45,3.15c-1.53,0.09-2.92,0.16-4.3,0.24c0.53-2.7,1.07-5.41,1.64-8.33
				c1.45,1.63,2.62,2.95,4.27,4.81c0.82-1.96,1.2-3.16,1.82-4.22c0.3-0.51,1.32-1.22,1.52-1.09c1.92,1.28,3.83,2.59,5.54,4.13
				C405.95,414.36,405.51,416.87,402.92,418.55z"/>
			<path class="st35" d="M209.47,410.4c0.16,0.96,0.32,1.92,0.48,2.88c0,0.32,0,0.63-0.01,0.95c-0.46-0.22-1.13-0.31-1.34-0.68
				c-1.37-2.29-2.69-2.32-4.75-0.41c-0.99,0.92-2.39,1.62-3.72,1.94c-3.09,0.75-3.43,1.01-3.62,4.44c-0.16,0.32-0.32,0.63-0.49,0.95
				c-0.48-0.32-0.96-0.64-1.43-0.97c-0.32-0.63-0.64-1.27-0.96-1.9c-0.62-3.02,2.43-3.35,3.79-4.8c1.61-1.72,3.94-2.76,6.16-4.23
				C204.89,410.97,207.29,410.3,209.47,410.4z"/>
			<path class="st36" d="M344.3,543.78c-3.96-8.8-7.91-17.61-11.87-26.41c1.57,1.76,4.04,3.3,4.53,5.32
				c1.45,6.05,6.31,10.52,7.29,16.66C344.48,540.79,344.3,542.3,344.3,543.78z"/>
			<path class="st32" d="M403.41,432.05c-0.63,0.74-1.26,1.48-1.88,2.21c-0.04-0.24-0.08-0.48-0.13-0.73
				c-1.09-0.28-2.17-0.69-3.27-0.81c-1.32-0.14-1.97-1.81-0.97-3.89c-1.47-0.08-2.74-0.16-4.01-0.23c-1.29-0.07-2.65,0.01-2.71-1.86
				c-0.06-1.62,0.69-2.18,2.29-2.21c1.48-0.04,2.95-0.47,4.42-0.73c0.46,2.67,0.59,5.5,3.69,6.7c0.1-0.27,0.25-0.64,0.39-1
				C402,430.42,402.7,431.24,403.41,432.05z"/>
			<path class="st36" d="M237.23,565.84c0.66-2.67,1.41-5.33,1.96-8.02c2.34-11.53,4.62-23.07,6.93-34.61
				c0.58-2.92,1.21-5.82,1.82-8.74c0.27,0.01,0.53,0.02,0.8,0.02c-2.69,13.54-5.37,27.07-8.09,40.6c-0.86,4.28-1.85,8.53-2.79,12.8
				c-0.49-0.4-0.97-0.79-1.46-1.19c-0.02-0.1-0.02-0.21,0.01-0.32C236.68,566.2,236.96,566.02,237.23,565.84z"/>
			<path class="st39" d="M403.41,432.05c-0.7-0.82-1.41-1.63-2.19-2.54c-0.14,0.36-0.28,0.73-0.39,1c-3.09-1.2-3.23-4.03-3.69-6.7
				c0.8-0.16,1.6-0.32,2.4-0.48c0.6,0.99,1.41,1.92,1.76,2.99c0.5,1.55,1.21,1.47,2.39,0.82c0.79-0.43,1.7-0.62,2.56-0.92
				c0.32,0.17,0.63,0.33,0.95,0.5c0.84,2.95,0.65,3.24-2.19,4.02c-0.31,0.09-0.45,0.82-0.66,1.25
				C404.04,432.01,403.72,432.03,403.41,432.05z"/>
			<path class="st32" d="M196.51,419.52c0.19-3.43,0.53-3.68,3.62-4.44c1.33-0.32,2.73-1.02,3.72-1.94
				c2.05-1.91,3.38-1.88,4.75,0.41c0.22,0.36,0.88,0.46,1.34,0.68c0.15,0.81,0.3,1.63,0.44,2.44c-0.25,0.1-0.51,0.2-0.76,0.3
				c-0.45-0.66-0.9-1.32-1.56-2.28c-2.18,0.86-4.45,1.73-6.69,2.65c-0.34,0.14-0.77,0.42-0.88,0.73c-0.47,1.29-0.59,3.28-2.38,0.81
				C198.02,418.77,197.06,419.29,196.51,419.52z"/>
			<path class="st39" d="M306.91,523.08c-0.32-0.08-0.6-0.1-0.6-0.15c-0.19-2.73-1.7-5.19-1.04-8.18c0.47-2.14-0.29-4.55-0.46-6.84
				c-0.05-0.61-0.04-1.24,0.08-1.84c0.46-2.4,0.96-4.79,1.51-7.47c0.15-0.01,0.71-0.05,1.37-0.1c-0.05,0.37-0.03,0.61-0.13,0.8
				c-0.27,0.53-0.84,1.04-0.84,1.57c-0.02,3.95,0.08,7.89,0.11,11.84C306.93,516.13,306.91,519.55,306.91,523.08z"/>
			<path class="st32" d="M380.34,420.96c-0.63,0.79-1.26,1.58-1.89,2.36c-3.75,0.23-7.49,0.45-11.37,0.69
				c0.29-1.61,0.81-2.77,2.85-2.64c0.98,0.07,1.99-0.34,2.99-0.56c1.31-0.3,2.62-0.63,3.93-0.93c0.68-0.16,1.37-0.32,2.06-0.46
				c0.58-0.12,1.18-0.2,1.76-0.3C380.56,419.74,380.45,420.35,380.34,420.96z"/>
			<path class="st35" d="M209.41,664.77c0.95-0.33,1.9-0.85,2.86-0.9c0.45-0.02,0.95,0.89,1.42,1.38c0.18-0.16,0.36-0.32,0.54-0.49
				c-0.32-0.83-0.64-1.65-0.95-2.48c1.94,0.9,3.84,1.75,6.11,1.57c0.48-0.04,1.05,1.15,1.58,1.77c-1.61,0.3-3.21,0.62-4.83,0.87
				c-0.51,0.08-1.24-0.26-1.55-0.01C211.89,668.74,210.89,666.06,209.41,664.77z"/>
			<path class="st35" d="M406.26,426.23c-0.86,0.3-1.78,0.49-2.56,0.92c-1.19,0.65-1.89,0.72-2.39-0.82c-0.35-1.07-1.16-2-1.76-2.99
				c1.96-2,4.57-1.34,5.76,1.45c-0.06,0.21-0.12,0.41-0.18,0.62c0.06-0.21,0.12-0.41,0.18-0.62
				C405.63,425.26,405.94,425.75,406.26,426.23z"/>
			<path class="st32" d="M404.35,431.99c0.22-0.43,0.35-1.16,0.66-1.25c2.84-0.78,3.04-1.07,2.19-4.02c0.08,0.01,0.2-0.01,0.23,0.03
				c1.03,1.42,2.11,2.82,3.04,4.3c0.24,0.38,0.04,1.05,0.04,2.11c-2.45-2.77-3.4,0.67-5.26,0.72
				C404.95,433.24,404.65,432.61,404.35,431.99z"/>
			<path class="st33" d="M287.08,310.09c-0.29,2.73-0.59,5.46-0.88,8.19c-0.3,0.45-0.6,0.9-0.9,1.34c-0.34,0.5-0.69,1-1.03,1.49
				c0.04-0.16,0.09-0.31,0.13-0.47c0.06-0.04,0.18-0.1,0.17-0.11c-0.04-0.11-0.11-0.22-0.16-0.33c0.17-2.81,0.35-5.63,0.5-8.44
				c0.03-0.55-0.06-1.1-0.09-1.66C285.58,310.1,286.33,310.1,287.08,310.09z"/>
			<path class="st33" d="M181.52,476.76c-1.73-6.23-3.46-12.46-5.19-18.69c-0.19-0.68-0.39-1.36-0.59-2.04
				c0.4,0,0.79,0.01,1.19,0.01c0.84,3.47,1.64,6.95,2.52,10.42c0.82,3.24,1.71,6.46,2.57,9.69
				C181.86,476.34,181.69,476.55,181.52,476.76z"/>
			<path class="st36" d="M289.65,148.52c-4.97,1.7-9.95,3.4-14.92,5.1c-0.17-0.14-0.35-0.29-0.52-0.43
				c5.14-1.75,10.28-3.5,15.42-5.25C289.63,148.14,289.64,148.33,289.65,148.52z"/>
			<path class="st33" d="M341.82,477.5c-0.33-2.72-0.66-5.43-1-8.15c-0.12-0.93-0.25-1.86-0.38-2.8c0.22,0.01,0.45,0.03,0.67,0.04
				c0.58,3.5,1.15,7,1.73,10.5C342.51,477.23,342.17,477.36,341.82,477.5z"/>
			<path class="st33" d="M285.8,299.49c-0.01,0.35-0.02,0.69-0.03,1.04c-1.45-2.72-2.9-5.43-4.35-8.15
				c0.33,0.14,0.66,0.28,0.99,0.43"/>
			<path class="st32" d="M387.54,418.53c-0.21,0.75-0.43,1.51-0.68,2.4c-1.59,0-3.33,0-5.07,0
				C383.7,420.13,385.62,419.33,387.54,418.53z"/>
			<path class="st35" d="M190.28,414.7c0.39,0.31,1.17,0.71,1.12,0.91c-0.52,2.15,0.96,1.93,2.23,2c-0.82,0.22-1.71,0.73-2.44,0.56
				c-0.48-0.12-0.83-1.18-1.04-1.89C190.01,415.8,190.22,415.23,190.28,414.7z"/>
			<path class="st32" d="M258.22,406.92c-1.57,0.39-3.13,0.78-4.7,1.17c-0.07-0.32-0.14-0.63-0.22-0.95c1.59-0.33,3.18-0.67,4.77-1
				C258.13,406.4,258.17,406.66,258.22,406.92z"/>
			<path class="st36" d="M235.77,572.03c0.05-0.63,0.1-1.26,0.16-1.88c0.59-0.48,1.18-0.96,1.77-1.44c-0.25,1.29-0.5,2.59-0.76,3.88
				C236.55,572.41,236.16,572.22,235.77,572.03z"/>
			<path class="st32" d="M194.59,419.5c0.48,0.32,0.96,0.64,1.43,0.97c0.14,0.54,0.28,1.08,0.54,2.1
				C195,421.65,193.45,421.37,194.59,419.5z"/>
			<path class="st32" d="M221.41,412c-0.07,0.62-0.14,1.24-0.21,1.86c-0.2-0.02-0.4-0.04-0.6-0.06c0.12-0.66,0.25-1.32,0.37-1.98
				C221.12,411.89,221.27,411.95,221.41,412z"/>
			<path class="st35" d="M220.76,665.69c0.33-0.48,0.48-0.82,0.57-0.81c0.41,0.07,0.8,0.24,1.13,0.68
				C221.97,665.59,221.47,665.63,220.76,665.69z"/>
			<path class="st32" d="M222.91,405.57c-0.49-0.14-0.97-0.28-1.46-0.42C221.94,405.29,222.43,405.43,222.91,405.57z"/>
			<path class="st34" d="M288.89,492.59c-0.24,0.42-0.48,0.84-0.71,1.27C287.43,492.88,287.77,492.52,288.89,492.59z"/>
			<path class="st33" d="M273.96,472.79c0.09-0.49,0.19-0.98,0.28-1.47C274.15,471.81,274.06,472.3,273.96,472.79z"/>
			<path class="st40" d="M411.74,518.04c0.18-0.37,0.36-0.75,0.54-1.12c0.13,0.06,0.27,0.11,0.4,0.17
				c-0.19,0.44-0.39,0.87-0.58,1.31C411.98,518.28,411.86,518.16,411.74,518.04z"/>
			<path class="st36" d="M331.83,515.95c-0.14-0.19-0.28-0.39-0.42-0.58c0.24-0.04,0.48-0.07,0.72-0.11
				C332.03,515.49,331.93,515.72,331.83,515.95z"/>
			<path class="st36" d="M345.34,546.16c-0.15-0.32-0.29-0.64-0.44-0.96C345.05,545.52,345.2,545.84,345.34,546.16z"/>
			<path class="st35" d="M212.3,636.52c-0.1-0.07-0.2-0.13-0.28-0.21c-0.02-0.02,0.05-0.18,0.09-0.18c0.13-0.01,0.27,0.01,0.4,0.02
				C212.44,636.27,212.37,636.4,212.3,636.52z"/>
			<path class="st41" d="M364,530.38c0.15,0.05,0.31,0.1,0.46,0.16c-0.05,0.12-0.1,0.24-0.15,0.36c-0.09-0.19-0.18-0.38-0.26-0.57
				C364.04,530.33,364,530.38,364,530.38z"/>
			<path class="st42" d="M367.22,538.18c-0.1-0.32-0.2-0.64-0.3-0.96c0.11-0.02,0.22-0.04,0.33-0.06c0.05,0.28,0.1,0.56,0.15,0.83
				C367.35,538.05,367.28,538.12,367.22,538.18z"/>
			<polygon class="st43" points="433.73,477.16 433.62,477.2 433.74,477.13 			"/>
			<path class="st42" d="M438.45,461.73c-0.18,0-0.36,0-0.54-0.01C438.09,461.72,438.27,461.73,438.45,461.73z"/>
			<path class="st44" d="M354.67,375.57c0.2-0.03,0.39-0.06,0.59-0.08c-0.11,0.13-0.22,0.25-0.33,0.38
				C354.83,375.77,354.75,375.67,354.67,375.57z"/>
			<path class="st45" d="M294.34,133.07h-0.16h-0.16c0.08-0.13,0.15-0.25,0.23-0.38C294.29,132.82,294.32,132.95,294.34,133.07z"/>
			<path class="st38" d="M253.08,576.36c0.03,0.1,0.07,0.2,0.1,0.3c-0.09,0-0.19,0-0.28-0.01c0.08-0.09,0.16-0.17,0.25-0.26
				C253.14,576.4,253.08,576.36,253.08,576.36z"/>
			<path class="st46" d="M228.8,243.17c-0.01-0.19-0.01-0.38-0.02-0.57c0.13,0.1,0.27,0.2,0.4,0.3
				C229.07,243.01,228.94,243.1,228.8,243.17z"/>
			<path class="st37" d="M295.63,219.89c0.06,0.12,0.12,0.21,0.14,0.32c0.01,0.04-0.09,0.1-0.14,0.15c-0.05-0.1-0.12-0.2-0.14-0.31
				C295.48,220.02,295.58,219.95,295.63,219.89z"/>
			<polygon class="st32" points="220.98,411.83 220.77,411.72 220.87,411.62 			"/>
			<path class="st44" d="M345.61,502.27c0.17-0.03,0.34-0.06,0.5-0.09c-0.02,0.05-0.04,0.14-0.05,0.14
				c-0.14-0.03-0.28-0.06-0.43-0.09C345.63,502.24,345.61,502.27,345.61,502.27z"/>
			<path class="st28" d="M352.71,379.21c0.59-0.48,1.17-0.97,1.76-1.45C353.88,378.24,353.29,378.73,352.71,379.21z"/>
			<path class="st28" d="M351.56,381.87c0.32-0.82,0.63-1.65,0.95-2.47C352.19,380.23,351.87,381.05,351.56,381.87z"/>
			<path class="st28" d="M371.52,333.53c-0.85,1.06-1.71,2.11-2.56,3.17c-0.21-0.18-0.43-0.36-0.64-0.55
				c0.96-1.02,1.91-2.04,2.87-3.05C371.29,333.24,371.4,333.38,371.52,333.53z"/>
			<path class="st28" d="M383.74,562.01c-1.13-1.77-2.26-3.55-3.39-5.32C381.48,558.47,382.61,560.24,383.74,562.01z"/>
			<path class="st28" d="M387.08,567.79c-0.8-1.46-1.61-2.93-2.41-4.39C385.47,564.87,386.28,566.33,387.08,567.79z"/>
			<path class="st28" d="M384.7,563.45c-0.33-0.49-0.67-0.99-1-1.48C384.04,562.46,384.37,562.96,384.7,563.45z"/>
			<path class="st28" d="M380.38,556.73c-0.34-0.33-0.68-0.66-1.02-0.99C379.7,556.08,380.04,556.41,380.38,556.73z"/>
			<path class="st28" d="M394.76,579.79c-0.8-1.46-1.61-2.92-2.41-4.39C393.16,576.86,393.96,578.32,394.76,579.79z"/>
			<path class="st28" d="M241.13,378.68c0.48,0.9,0.96,1.81,1.44,2.71C242.09,380.49,241.61,379.59,241.13,378.68z"/>
			<path class="st28" d="M242.78,381.6c1.59,0.1,1.98,0.6,1.72,2.2C243.92,383.06,243.35,382.33,242.78,381.6z"/>
			<path class="st28" d="M244.7,384c1.48,0.03,2,0.71,1.72,2.2C245.84,385.46,245.27,384.73,244.7,384z"/>
			<path class="st28" d="M246.62,386.4c1.38-0.02,1.75,0.39,1.73,1.96C247.77,387.7,247.19,387.05,246.62,386.4z"/>
			<path class="st28" d="M358.26,522.15c0.8,1.46,1.61,2.92,2.41,4.38C359.87,525.07,359.06,523.61,358.26,522.15z"/>
			<path class="st28" d="M353.94,515.43c0.8,1.46,1.61,2.92,2.41,4.38C355.55,518.35,354.74,516.89,353.94,515.43z"/>
			<path class="st28" d="M356.31,519.77c0.33,0.5,0.67,0.99,1,1.49C356.98,520.76,356.65,520.26,356.31,519.77z"/>
			<path class="st28" d="M357.28,521.21c0.34,0.33,0.68,0.66,1.02,0.99C357.96,521.87,357.62,521.54,357.28,521.21z"/>
			<path class="st28" d="M360.64,526.49c0.34,0.33,0.68,0.66,1.02,0.99C361.32,527.15,360.98,526.82,360.64,526.49z"/>
			<path class="st28" d="M259.74,252.64c1.49,1.06,4.48,6.63,3.62,5.08C265.1,260.84,258.15,251.01,259.74,252.64z"/>
			<path class="st28" d="M311.71,302.47c-0.05-0.3-0.25-0.69-0.13-0.9c1.32-2.38,2.68-4.75,4.08-7.09c0.11-0.18,0.58-0.14,0.89-0.21
				C314.93,297,313.32,299.74,311.71,302.47z"/>
			<path class="st28" d="M237.7,568.71c-0.59,0.48-1.18,0.96-1.77,1.44c0.16-1.15,0.31-2.3,0.47-3.45c0.49,0.4,0.97,0.79,1.46,1.19
				C237.8,568.16,237.75,568.44,237.7,568.71z"/>
			<path class="st28" d="M269.91,269.32c0.49,0.81,0.98,1.63,1.47,2.44C270.89,270.95,270.4,270.14,269.91,269.32z"/>
			<path class="st28" d="M268.47,266.93c0.49,0.81,0.98,1.63,1.47,2.44C269.45,268.55,268.96,267.74,268.47,266.93z"/>
			<path class="st28" d="M411.05,441.06c0.97,2.1,1.94,4.2,2.91,6.3C412.99,445.26,412.02,443.16,411.05,441.06z"/>
			<path class="st28" d="M277.63,387.56c0.64,1.14,1.27,2.29,1.91,3.43C278.9,389.85,278.26,388.7,277.63,387.56z"/>
			<path class="st28" d="M275.23,384.69c0.56,0.89,1.11,1.79,1.67,2.68C276.34,386.47,275.78,385.58,275.23,384.69z"/>
			<path class="st28" d="M251.71,356.86c0.64,1.06,1.28,2.13,1.92,3.19C252.99,358.98,252.35,357.92,251.71,356.86z"/>
			<path class="st28" d="M246.14,351.37c1.65,0.14,2.35,0.99,2.2,2.68C247.6,353.16,246.87,352.26,246.14,351.37z"/>
			<path class="st28" d="M249.07,354.25c0.81,0.8,1.62,1.6,2.43,2.4C250.69,355.85,249.88,355.05,249.07,354.25z"/>
			<path class="st28" d="M223.85,357.89c-0.57-0.73-1.15-1.47-1.72-2.2C223.62,355.72,224.12,356.36,223.85,357.89z"/>
			<path class="st28" d="M225.77,360.29c-0.57-0.73-1.15-1.47-1.72-2.2C225.53,358.13,226.06,358.8,225.77,360.29z"/>
			<path class="st28" d="M366.87,360.98c0.49-0.65,0.99-1.31,1.48-1.96C367.86,359.67,367.37,360.32,366.87,360.98z"/>
			<path class="st28" d="M371.67,354.74c0.49-0.65,0.98-1.31,1.48-1.96C372.66,353.43,372.17,354.09,371.67,354.74z"/>
			<path class="st28" d="M369.99,356.65c0.58-0.65,1.15-1.3,1.73-1.96C371.81,355.94,371.59,356.9,369.99,356.65z"/>
			<path class="st28" d="M368.31,359.06c0.49-0.73,0.98-1.47,1.47-2.2C370.15,358.23,369.86,358.67,368.31,359.06z"/>
			<path class="st28" d="M340.95,495.78c0.33,0.49,0.67,0.99,1,1.48C341.61,496.77,341.28,496.28,340.95,495.78z"/>
			<path class="st28" d="M250.74,390.44c0.57,0.73,1.15,1.47,1.72,2.2C250.95,392.6,250.45,391.95,250.74,390.44z"/>
			<path class="st28" d="M284.42,320.21c0.06,0.11,0.12,0.21,0.16,0.33c0.01,0.02-0.11,0.07-0.17,0.11
				C284.33,320.5,284.34,320.35,284.42,320.21z"/>
			<path class="st28" d="M350.62,510.18c-0.34-0.33-0.68-0.66-1.02-0.99C349.94,509.53,350.28,509.86,350.62,510.18z"/>
			<path class="st28" d="M192.17,405.6c0.07,0.03,0.13,0.07,0.2,0.1c-0.06-0.04-0.12-0.08-0.18-0.12
				C192.18,405.58,192.17,405.6,192.17,405.6z"/>
			<path class="st28" d="M371.72,543.8c-0.8-1.46-1.61-2.92-2.41-4.39C370.11,540.88,370.91,542.34,371.72,543.8z"/>
			<path class="st28" d="M373.66,546.18c-0.66-0.81-1.32-1.62-1.99-2.42C372.34,544.56,373,545.37,373.66,546.18z"/>
			<path class="st28" d="M369.34,539.46c-0.34-0.33-0.68-0.66-1.02-0.99C368.66,538.81,369,539.13,369.34,539.46z"/>
			<path class="st28" d="M328.04,274.59c-0.5,0.65-0.99,1.3-1.49,1.95C327.05,275.88,327.55,275.24,328.04,274.59z"/>
			<path class="st28" d="M248.83,234.34c-0.49-0.82-0.99-1.63-1.48-2.45C247.84,232.7,248.34,233.52,248.83,234.34z"/>
			<path class="st32" d="M398.59,414.22c-0.04,0.07-0.07,0.14-0.11,0.2C398.52,414.36,398.56,414.29,398.59,414.22
				C398.59,414.23,398.59,414.22,398.59,414.22z"/>
			<path class="st28" d="M269.95,378.45c0.64,1.14,1.27,2.29,1.91,3.43C271.22,380.73,270.58,379.59,269.95,378.45z"/>
			<path class="st28" d="M340.02,396.02c0.58-0.49,1.15-0.97,1.73-1.46C341.17,395.04,340.6,395.53,340.02,396.02z"/>
			<path class="st28" d="M343.11,391.68c0.59-0.48,1.17-0.97,1.76-1.45C344.28,390.72,343.69,391.2,343.11,391.68z"/>
			<path class="st28" d="M341.95,394.35c0.32-0.82,0.63-1.65,0.95-2.47C342.59,392.7,342.27,393.53,341.95,394.35z"/>
			<path class="st28" d="M306.19,217.73c-0.06-0.17-0.12-0.34-0.19-0.52c0.22,0.01,0.43,0.02,0.65,0.03
				C306.5,217.4,306.35,217.57,306.19,217.73z"/>
			<path class="st39" d="M405.31,424.78c-0.06,0.21-0.12,0.41-0.18,0.62C405.19,425.19,405.25,424.99,405.31,424.78L405.31,424.78z"
				/>
		</g>
	</g>
	<line class="st47" x1="379.96" y1="324.6" x2="404.97" y2="293.96"/>
	<line class="st0" x1="397.74" y1="392.31" x2="419.45" y2="371.3"/>
	<line class="st0" x1="369.11" y1="335.92" x2="346.6" y2="362.03"/>
	<line class="st47" x1="253.63" y1="360.05" x2="193.17" y2="285.79"/>
	<line class="st47" x1="201.29" y1="329.38" x2="254.53" y2="396.04"/>
	<line class="st47" x1="387.58" y1="334.57" x2="340.02" y2="396.02"/>
	<line class="st47" x1="269.95" y1="378.45" x2="283.98" y2="395.76"/>
</g>
</svg>
