<?xml version="1.0" encoding="utf-8"?>
<!-- Generator: Adobe Illustrator 27.9.4, SVG Export Plug-In . SVG Version: 9.03 Build 54784)  -->
<svg version="1.1" xmlns="http://www.w3.org/2000/svg" xmlns:xlink="http://www.w3.org/1999/xlink" x="0px" y="0px"
	 viewBox="0 0 595.28 274.37" style="enable-background:new 0 0 595.28 274.37;" xml:space="preserve">
<style type="text/css">
	.st0{fill:#D3CF48;stroke:#000000;stroke-width:0.75;stroke-miterlimit:10;}
	.st1{fill:#CDB35B;}
	.st2{fill:#C3944A;}
	.st3{fill:#C8A64F;}
	.st4{fill:#B38B49;}
	.st5{fill:#88482E;}
	.st6{fill:#9B5E37;}
	.st7{fill:#9A6E41;}
	.st8{fill:#DDC47B;}
	.st9{fill:#C69F4B;}
	.st10{fill:#C28D47;}
	.st11{fill:#AF8045;}
	.st12{fill:#A46C3A;}
	.st13{fill:#EFEAF2;}
	.st14{fill:#C49647;}
	.st15{fill:#C39446;}
	.st16{fill:#BC8C44;}
	.st17{fill:#82412C;}
	.st18{fill:#743228;}
	.st19{fill:#90502F;}
	.st20{fill:#6C2A23;}
	.st21{fill:#C49649;}
	.st22{fill:#B98143;}
	.st23{fill:#BA7E40;}
	.st24{fill:#AF723D;}
	.st25{fill:#9E6336;}
	.st26{fill:#995A33;}
	.st27{fill:#621922;}
	.st28{fill:#181410;}
	.st29{fill:#191410;}
	.st30{fill:#191511;}
	.st31{fill:#83583B;}
	.st32{fill:#2D2016;}
	.st33{fill:#373330;}
	.st34{fill:#533E2F;}
	.st35{fill:#38271A;}
	.st36{fill:#2B2724;}
	.st37{fill:#F1F1F0;}
	.st38{fill:#FCFCFB;}
	.st39{fill:#473020;}
	.st40{fill:#F9F9F8;}
	.st41{fill:#FAFAF8;}
	.st42{fill:#FBFBF9;}
	.st43{fill:#FEFEFD;}
	.st44{fill:#F5F5F4;}
	.st45{fill:#E8E7E6;}
	.st46{fill:#FDFDFC;}
	.st47{fill:#181410;stroke:#000000;stroke-miterlimit:10;}
	.st48{fill:#181410;stroke:#000000;stroke-width:0.75;stroke-miterlimit:10;}
</style>
<g id="Layer_2">
</g>
<g id="Layer_1">
	<g>
		<g>
			<path class="st28" d="M467.14,75.87c2.32,2.72,4.69,5.4,6.96,8.16c5.36,6.53,10.48,13.27,16.06,19.6
				c5.17,5.87,8.85,12.35,10.74,19.94c0.87,3.49,2.25,6.85,3.22,10.32c0.87,3.11,1.31,6.34,2.28,9.41c0.62,1.96,1.86,3.73,2.83,5.58
				c2.01,3.81,4.05,7.61,6.05,11.43c3.78,7.22,4.27,15.3,6.07,23.04c0.34,1.47,0.67,2.95,1.05,4.61c-4.96,0.56-9.83,1.11-14.7,1.66
				c-1.75,0.2-3.55,0.18-5.22,0.65c-5.29,1.49-10.28,0.38-15.17-1.54c-7.3-2.87-15.02-3.64-22.67-4.81
				c-2.21-0.34-4.42-0.71-6.63-1.04c-1.81-0.27-2.76-0.96-2.09-3.04c1.64-5.08,3.16-10.19,4.73-15.29
				c2.99-9.72,3.1-19.67,2.21-29.67c-0.74-8.35-1.62-16.68-2.45-25.01c-0.06-0.63-0.11-1.29-0.33-1.88
				c-2.47-6.8-1.72-13.83-1.58-20.82c0-0.2,0.14-0.4,0.27-0.73c1.17,1.29,2.35,2.18,3.95,0.92c-0.2,0.74-0.41,1.47-0.61,2.21
				c4.27,1.34,4.93,0.87,5.52-3.71c0.08-0.61,0.61-1.17,0.93-1.75c0,1.65,0,3.3,0,4.95c0.9-1.67,1.57-3.34-0.03-4.92
				c-0.28-1.2-0.64-2.4-0.83-3.62C467.45,78.98,467.33,77.42,467.14,75.87z M479.6,101.88c-0.03-0.36-0.06-0.72-0.1-1.07
				c-0.11,0.03-0.22,0.06-0.33,0.09c0.14,0.33,0.27,0.66,0.41,1c0.93,3.25,1.87,6.5,2.8,9.75c0.26-0.07,0.53-0.14,0.79-0.21
				c-0.76-3.35-1.52-6.69-2.31-10.21c0.85,1.02,1.45,1.74,2.05,2.45c0.23-0.16,0.46-0.32,0.69-0.49c-0.73-1.39-1.47-2.79-2.31-4.39
				C480.61,100.03,480.11,100.95,479.6,101.88z"/>
			<path class="st31" d="M468.57,84.11c-0.32,0.58-0.85,1.14-0.93,1.75c-0.59,4.58-1.25,5.05-5.52,3.71
				c0.2-0.74,0.41-1.47,0.61-2.21c3.26-3.16,1.49-6.97,1.38-10.57c-0.04-1.29-0.01-2.59-0.01-3.88c0.19-0.09,0.39-0.18,0.58-0.27
				c0.82,1.07,1.64,2.15,2.45,3.22c0.18,1.55,0.31,3.12,0.56,4.66c0.2,1.22,0.55,2.41,0.83,3.62
				C468.54,84.14,468.57,84.11,468.57,84.11z"/>
			<path class="st39" d="M479.6,101.88c0.5-0.92,1.01-1.84,1.69-3.09c0.84,1.6,1.57,2.99,2.31,4.39c-0.23,0.16-0.46,0.32-0.69,0.49
				c-0.6-0.72-1.19-1.43-2.05-2.45c0.8,3.52,1.56,6.87,2.31,10.21c-0.26,0.07-0.53,0.14-0.79,0.21c-0.93-3.25-1.87-6.5-2.8-9.75
				L479.6,101.88z"/>
			<path class="st31" d="M468.54,84.14c1.6,1.59,0.94,3.25,0.03,4.92c0-1.65,0-3.3,0-4.95C468.57,84.11,468.54,84.14,468.54,84.14z"
				/>
			<path class="st39" d="M479.59,101.89c-0.14-0.33-0.27-0.66-0.41-1c0.11-0.03,0.22-0.06,0.33-0.09c0.03,0.36,0.06,0.72,0.1,1.07
				C479.6,101.88,479.59,101.89,479.59,101.89z"/>
			<path class="st29" d="M153.63,97.62c-1.33,2.56-2.88,5.04-3.93,7.72c-0.72,1.85-0.92,3.95-1.07,5.96c-0.16,2.2,0,4.43,0.02,6.64
				c-0.02,0.3-0.04,0.61-0.06,0.91c-0.52,0.09-1.05,0.17-1.45,0.24c-1.23,3.15-2.45,6.26-3.66,9.36c0.26,0.1,0.52,0.19,0.78,0.29
				c1.12-1.68,2.24-3.37,3.37-5.05c0.7-0.47,1.56-0.8,2.08-1.42c1.4-1.7,2.67-3.51,3.95-5.29c1.38-1.91,2.73-3.85,4.09-5.77
				c0.21,0.72,0.82,1.71,0.56,2.13c-4.68,7.27-4.92,15.5-5.23,23.7c-0.29,7.58-0.64,15.17-0.57,22.76c0.03,2.92,1.15,5.82,1.78,8.73
				c0.47,2.2,1.34,4.41,1.32,6.6c-0.02,4.17,2.39,7.27,3.94,10.76c0.49,1.11,1.13,2.97,0.62,3.54c-0.84,0.95-2.57,1.62-3.87,1.54
				c-2.6-0.15-5.35-0.48-7.72-1.48c-4.42-1.85-8.46-0.64-12.54,0.74c-2.64,0.89-5.16,2.15-7.78,3.11c-1.01,0.37-2.19,0.66-3.23,0.52
				c-3.67-0.49-7.32-1.19-10.98-1.8c-3.38-0.57-6.75-1.26-10.16-1.64c-2.49-0.27-4.4-1.17-5.62-3.39c-1.12-2.03-2.3-4.01-3.36-6.07
				c-0.3-0.58-0.51-1.44-0.31-2.01c3-8.57,6.01-17.14,9.19-25.65c1.07-2.85,2.6-5.54,4-8.27c0.88-1.73,0.94-1.7,2.24-0.91
				c0,2.88-0.05,5.43,0.04,7.97c0.02,0.6,0.55,1.18,0.85,1.77c0.51-0.26,1.06-0.46,1.51-0.8c4.18-3.25,5.1-8.19,6.6-12.83
				c0.44-1.35,0.87-2.7,1.3-4.05c0.63-0.46,1.48-0.78,1.85-1.4c2.03-3.39,3.73-6.99,5.95-10.23c1.67-2.44,3.99-4.42,5.94-6.69
				c2.07-2.41,3.45-5.4,6.33-7.11c0.43-0.25,0.65-0.87,0.95-1.33c0.98-1.49,1.95-2.99,2.92-4.48c0.35-0.26,0.71-0.53,1.06-0.79
				c0,0,0.03-0.02,0.03-0.02c0.29-0.34,0.58-0.68,0.87-1.02c0,0,0.01-0.01,0.01-0.01c1.58,0.04,2.33-0.8,2.47-2.3l0.05-0.04
				c0.79-0.61,1.55-1.27,2.39-1.82C151.91,98.45,152.79,98.06,153.63,97.62z"/>
			<path class="st30" d="M92.68,107.09c0.06,1.74,0.12,3.47,0.18,5.21c-0.87,3.02-0.87,3.02,0.09,3.73c0.45,4.2,0.85,8.41,1.4,12.6
				c0.14,1.07,0.63,2.15,1.19,3.09c1.54,2.56,0.16,5.28-2.88,5.47c-1.12,0.07-2.26,0.21-3.35,0.04c-3.9-0.62-4.92,2.64-6.32,4.94
				c-1.54,2.52-2.36,5.47-3.65,8.17c-0.3,0.63-1.21,1.37-1.85,1.37c-6.87,0.03-13.74-0.02-20.6-0.17c-2.86-0.06-3.06-0.43-2.84-3.33
				c0.49-6.49,0.63-13.04,1.59-19.47c0.81-5.45,2.42-10.81,3.94-16.13c1.39-4.88,3.05-9.7,4.75-14.49c0.69-1.94,1.65-3.81,2.75-5.56
				c4.73-7.58,9.75-15,14.28-22.7c2.72-4.62,6.57-8.09,10.26-12.33c0.71,1.72,1.26,3.04,1.8,4.35c-0.25,0.2-0.61,0.34-0.73,0.59
				c-2.33,5.13-4.63,10.28-6.96,15.42c-0.32,0.71-0.82,1.34-1.12,2.06c-0.33,0.81-0.95,1.84-0.7,2.48
				c1.89,4.81,0.94,10.7,5.41,14.55c0.21,0.18,0.26,0.57,0.32,0.88c0.72,3.33,1.43,6.66,2.15,9.99
				C92.09,107.61,92.38,107.35,92.68,107.09z M67.86,119.49c-0.72-4.65-1.47-9.49-2.14-13.8C64.81,113.68,65.52,118.09,67.86,119.49
				z"/>
			<path class="st31" d="M144.24,104.95c-0.97,1.49-1.94,2.99-2.92,4.48c-0.3,0.46-0.52,1.08-0.95,1.33
				c-2.88,1.7-4.27,4.7-6.33,7.11c-1.94,2.26-4.27,4.25-5.94,6.69c-2.22,3.25-3.92,6.85-5.95,10.23c-0.37,0.61-1.22,0.94-1.85,1.4
				c1.85-4.39,3.83-8.74,5.5-13.2c2.48-6.6,7.43-11.19,12.42-15.74c2.77-2.53,5.85-4.72,8.79-7.06c0.57,0.19,1.14,0.38,1.71,0.58
				c0,0-0.05,0.04-0.05,0.04c-0.82,0.77-1.65,1.53-2.47,2.3c0,0-0.01,0.01-0.01,0.01c-0.29,0.34-0.58,0.68-0.87,1.02
				c0,0-0.03,0.02-0.03,0.02C144.95,104.42,144.6,104.68,144.24,104.95z"/>
			<path class="st31" d="M92.68,107.09c-0.3,0.26-0.59,0.52-0.87,0.76c-0.72-3.34-1.43-6.67-2.15-9.99
				c-0.07-0.31-0.11-0.7-0.32-0.88c-4.48-3.85-3.52-9.74-5.41-14.55c-0.25-0.64,0.37-1.68,0.7-2.48c0.29-0.72,0.8-1.35,1.12-2.06
				c2.33-5.14,4.63-10.28,6.96-15.42c0.12-0.26,0.48-0.4,0.73-0.59c0.53,5.03-0.91,9.65-2.89,14.17c-0.54,1.23-1.11,2.43-1.67,3.65
				c-0.08,0.15-0.16,0.3-0.24,0.45c0.12,0.15,0.1,0.3-0.04,0.42c-0.28,0.27-0.73,0.5-0.81,0.82c-0.81,3.51-1.88,7.05,0.87,10.26
				l0.09,0.13c0,0-0.09,0.13-0.09,0.13c0.14,0.38,0.27,0.76,0.41,1.14c1.27,3.71,2.58,7.4,3.79,11.13c0.17,0.53-0.08,1.2-0.13,1.81
				c-0.06,0.26-0.12,0.51-0.18,0.77C92.67,106.83,92.72,106.94,92.68,107.09z"/>
			<path class="st34" d="M157.74,111.21c-1.36,1.93-2.71,3.86-4.09,5.77c-1.29,1.79-2.56,3.6-3.95,5.29
				c-0.51,0.62-1.37,0.96-2.08,1.43c0.73-1.29,1.46-2.57,2.2-3.86c-0.41-0.33-0.82-0.66-1.23-0.99c0.02-0.3,0.04-0.61,0.06-0.91
				c0.75-0.28,1.7-0.37,2.23-0.89c1.63-1.61,3.04-3.44,4.67-5.05C156.05,111.52,157,111.47,157.74,111.21z"/>
			<path class="st34" d="M148.73,100.77c-0.57-0.19-1.14-0.38-1.71-0.58c1.35-1.5,2.56-3.15,4.09-4.44c0.83-0.7,2.18-0.79,3.29-1.15
				c-0.25,1.01-0.51,2.02-0.76,3.03c-0.84,0.44-1.72,0.82-2.51,1.33C150.28,99.5,149.52,100.16,148.73,100.77z"/>
			<path class="st34" d="M88.64,91.65c-2.74-3.21-1.68-6.76-0.87-10.26c0.07-0.32,0.53-0.55,0.81-0.82
				C87.91,84.26,87.38,87.96,88.64,91.65z"/>
			<path class="st31" d="M92.95,116.03c-0.96-0.7-0.96-0.7-0.09-3.73C92.89,113.54,92.92,114.78,92.95,116.03z"/>
			<path class="st34" d="M89.05,93.05c-0.14-0.38-0.27-0.76-0.41-1.14C88.77,92.29,88.91,92.67,89.05,93.05z"/>
			<path class="st34" d="M88.62,80.14c0.08-0.15,0.16-0.3,0.24-0.45C88.78,79.84,88.7,79.99,88.62,80.14z"/>
			<path class="st30" d="M92.53,106.76c0.06-0.26,0.12-0.51,0.18-0.77C92.65,106.25,92.59,106.5,92.53,106.76z"/>
			<path class="st31" d="M148.59,118.86c0.41,0.33,0.82,0.66,1.23,0.99c-0.73,1.29-1.46,2.57-2.2,3.86
				c-1.12,1.68-2.24,3.36-3.37,5.05c-0.26-0.1-0.52-0.19-0.78-0.29c1.21-3.1,2.43-6.21,3.66-9.36
				C147.54,119.03,148.06,118.94,148.59,118.86z"/>
			<path class="st34" d="M146.21,103.11c0.82-0.77,1.64-1.53,2.47-2.3C148.54,102.32,147.79,103.15,146.21,103.11z"/>
			<path class="st34" d="M144.24,104.95c0.35-0.26,0.71-0.53,1.06-0.79C144.95,104.42,144.6,104.68,144.24,104.95z"/>
			<path class="st34" d="M145.33,104.13c0.29-0.34,0.58-0.68,0.87-1.02C145.92,103.46,145.63,103.8,145.33,104.13z"/>
			<path class="st31" d="M67.86,119.49c-2.34-1.4-3.05-5.81-2.14-13.8C66.39,110.01,67.14,114.85,67.86,119.49z"/>
		</g>
	</g>
</g>
</svg>
